<?xml version="1.0" encoding="UTF-8" standalone="no"?>
<!-- Created with Inkscape (http://www.inkscape.org/) -->

<svg
   width="400"
   height="560"
   viewBox="0 0 105.83333 148.1668"
   version="1.1"
   id="svg1"
   inkscape:version="1.4.2 (f4327f4, 2025-05-13)"
   sodipodi:docname="comming soon.svg"
   xmlns:inkscape="http://www.inkscape.org/namespaces/inkscape"
   xmlns:sodipodi="http://sodipodi.sourceforge.net/DTD/sodipodi-0.dtd"
   xmlns="http://www.w3.org/2000/svg"
   xmlns:svg="http://www.w3.org/2000/svg">
  <sodipodi:namedview
     id="namedview1"
     pagecolor="#273a1b"
     bordercolor="#000000"
     borderopacity="0.25"
     inkscape:showpageshadow="2"
     inkscape:pageopacity="0.0"
     inkscape:pagecheckerboard="0"
     inkscape:deskcolor="#d1d1d1"
     inkscape:document-units="mm"
     inkscape:zoom="5.656854"
     inkscape:cx="38.714098"
     inkscape:cy="94.133594"
     inkscape:window-width="2560"
     inkscape:window-height="1377"
     inkscape:window-x="-8"
     inkscape:window-y="1112"
     inkscape:window-maximized="1"
     inkscape:current-layer="svg1" />
  <defs
     id="defs1">
    <inkscape:path-effect
       effect="fillet_chamfer"
       id="path-effect6"
       is_visible="true"
       lpeversion="1"
       nodesatellites_param="F,0,0,1,0,0,0,1 @ F,0,0,1,0,0,0,1 @ F,0,0,1,0,0,0,1 @ F,0,0,1,0,0,0,1 @ F,0,0,1,0,0,0,1 @ F,0,0,1,0,0,0,1 @ F,0,0,1,0,0,0,1 @ F,0,0,1,0,0,0,1 @ F,0,0,1,0,0,0,1 @ F,0,0,1,0,0,0,1 @ F,0,0,1,0,0,0,1 @ F,0,0,1,0,0,0,1 @ F,0,0,1,0,0.10286,0,1 @ F,0,1,1,0,0.10286,0,1 @ F,0,0,1,0,0,0,1 @ F,0,0,1,0,0,0,1 @ F,0,0,1,0,0,0,1"
       radius="0"
       unit="px"
       method="auto"
       mode="F"
       chamfer_steps="1"
       flexible="false"
       use_knot_distance="true"
       apply_no_radius="true"
       apply_with_radius="true"
       only_selected="false"
       hide_knots="false" />
  </defs>
  <g
     inkscape:label="Layer 1"
     inkscape:groupmode="layer"
     id="layer1"
     style="display:inline" />
  <path
     style="font-style:oblique;font-size:38.8513px;line-height:0px;font-family:Quicksand;-inkscape-font-specification:'Quicksand Oblique';letter-spacing:-0.416262px;word-spacing:0px;fill:#ffffff;fill-opacity:1;fill-rule:evenodd;stroke-width:0.437536;stroke-linecap:square;stroke-miterlimit:0.2;paint-order:markers stroke fill"
     d="m 97.660645,127.96894 c 0.0092,0.009 0.02744,0.009 0.03661,0.009 0.109825,0 0.201343,-0.0732 0.219649,-0.18305 l 0.347818,-1.98614 c 0.0092,-0.009 0.01838,-0.0275 0.02744,-0.0549 0.09153,-0.1739 0.338647,-0.64069 0.723079,-1.05256 0.384392,-0.40272 0.878649,-0.75052 1.455269,-0.74137 0.11898,0 0.21964,-0.10068 0.21964,-0.21966 0,-0.12814 -0.10066,-0.21967 -0.21964,-0.21967 -0.860361,0 -1.510215,0.55832 -1.940379,1.08917 -0.01837,0.0183 -0.04576,0.0458 -0.06405,0.0732 l 0.155597,-0.90611 c 0.01837,-0.11898 -0.05493,-0.23797 -0.173903,-0.25628 -0.118998,-0.0183 -0.228822,0.0641 -0.247129,0.18306 l -0.356951,1.99528 c 0,0.009 0,0.009 0,0.009 l -0.356952,2.01359 c -0.02748,0.11899 0.0549,0.22882 0.173903,0.24713 z"
     id="path31" />
  <path
     style="font-style:oblique;font-size:38.8513px;line-height:0px;font-family:Quicksand;-inkscape-font-specification:'Quicksand Oblique';letter-spacing:-0.416262px;word-spacing:0px;fill:#ffffff;fill-opacity:1;fill-rule:evenodd;stroke-width:0.437536;stroke-linecap:square;stroke-miterlimit:0.2;paint-order:markers stroke fill"
     d="m 96.851804,125.36957 c 0,-0.51255 -0.173903,-0.98849 -0.494257,-1.31798 -0.320313,-0.33865 -0.777957,-0.54917 -1.299652,-0.54917 -1.180728,0.009 -2.260732,0.98849 -2.480394,2.2058 -0.02747,0.14644 -0.0366,0.28374 -0.0366,0.41187 0,0.5217 0.18305,0.98849 0.50339,1.32714 0.32034,0.33865 0.777957,0.54001 1.290524,0.54001 0.0092,0 0.0092,0 0.0092,0 1.171522,0 2.251553,-0.97934 2.471215,-2.19664 l -0.210516,-0.0458 0.210516,0.0458 c 0.02747,-0.14645 0.03661,-0.28374 0.03661,-0.42103 z m -0.466791,0.33865 c -0.173903,1.01595 -1.11663,1.858 -2.041037,1.84884 -0.814601,-0.009 -1.354603,-0.59492 -1.363763,-1.43697 0,-0.10068 0.0092,-0.21966 0.02747,-0.32949 0.17389,-1.01595 1.116621,-1.84885 2.031909,-1.84885 0.0092,0 0.0092,0 0.01838,0 0.805423,0.009 1.354599,0.59493 1.363731,1.42782 0,0.10983 -0.01837,0.22882 -0.0366,0.33865 z"
     id="path30" />
  <path
     style="font-style:oblique;font-size:38.8513px;line-height:0px;font-family:Quicksand;-inkscape-font-specification:'Quicksand Oblique';letter-spacing:-0.416262px;word-spacing:0px;fill:#ffffff;fill-opacity:1;fill-rule:evenodd;stroke-width:0.437536;stroke-linecap:square;stroke-miterlimit:0.2;paint-order:markers stroke fill"
     d="m 92.506094,123.72693 h -1.153229 l 0.283714,-1.67494 c 0.01837,-0.11898 -0.06405,-0.22882 -0.18305,-0.25628 -0.12813,-0.0183 -0.237968,0.0641 -0.265434,0.18306 l -0.283728,1.74816 h -0.668146 c -0.12813,0 -0.228822,0.10068 -0.228822,0.22882 0,0.11898 0.100692,0.21966 0.228822,0.21966 h 0.585788 l -0.585788,3.20344 c 0,0.0458 -0.0092,0.0915 -0.0092,0.13729 0,0.18306 0.07325,0.35696 0.201383,0.48509 0.128131,0.12814 0.302034,0.20136 0.49423,0.20136 0,0 0,0 0,0 0.128157,0 0.228822,-0.10067 0.228822,-0.22881 0,-0.11899 -0.100665,-0.21967 -0.228822,-0.21967 -0.164744,-0.009 -0.237969,-0.0915 -0.247101,-0.23797 0,-0.0183 0,-0.0458 0.0092,-0.0641 l 0.594907,-3.27666 h 1.226468 c 0.118998,0 0.219689,-0.10068 0.219689,-0.21966 0,-0.12814 -0.100691,-0.22882 -0.219689,-0.22882 z"
     id="path29" />
  <path
     style="font-style:oblique;font-size:38.8513px;line-height:0px;font-family:Quicksand;-inkscape-font-specification:'Quicksand Oblique';letter-spacing:-0.416262px;word-spacing:0px;fill:#ffffff;fill-opacity:1;fill-rule:evenodd;stroke-width:0.437536;stroke-linecap:square;stroke-miterlimit:0.2;paint-order:markers stroke fill"
     d="m 86.133228,127.98724 c 0,0 0,0 0,0 0.686466,-0.009 1.327146,-0.3295 1.78479,-0.84205 l -0.100677,0.58577 c -0.01838,0.11899 0.05491,0.22882 0.173903,0.25628 0.01837,0 0.02744,0 0.03661,0 0.109824,0 0.201342,-0.0732 0.219649,-0.18305 l 0.713919,-4.02719 c 0.01837,-0.11898 -0.06408,-0.22881 -0.18305,-0.25627 -0.118998,-0.0183 -0.228822,0.0641 -0.247128,0.18305 l -0.128131,0.72307 c -0.07322,-0.13729 -0.16477,-0.25628 -0.265435,-0.36611 -0.320339,-0.33865 -0.768824,-0.54001 -1.290547,-0.54001 -1.180695,0.009 -2.242393,0.98849 -2.462069,2.19664 -0.02745,0.13729 -0.03661,0.27459 -0.03661,0.41188 0,0.5217 0.173903,0.97933 0.494256,1.31798 0.32034,0.33865 0.768824,0.54001 1.29052,0.54001 z m -1.317972,-2.19664 c 0.173889,-1.0068 1.09831,-1.83054 2.022745,-1.83054 0,0 0.0092,0 0.0092,0 0.814596,0.009 1.345452,0.59492 1.354598,1.41867 0,0.10983 -0.0092,0.21966 -0.02745,0.33864 -0.173903,1.01595 -1.116631,1.83969 -2.041065,1.83054 -0.796263,-0.009 -1.345425,-0.59492 -1.354572,-1.41866 0,-0.10984 0.0092,-0.21967 0.03661,-0.33865 z"
     id="path28" />
  <path
     style="font-style:oblique;font-size:38.8513px;line-height:0px;font-family:Quicksand;-inkscape-font-specification:'Quicksand Oblique';letter-spacing:-0.416262px;word-spacing:0px;fill:#ffffff;fill-opacity:1;fill-rule:evenodd;stroke-width:0.437536;stroke-linecap:square;stroke-miterlimit:0.2;paint-order:markers stroke fill"
     d="m 81.037798,127.97352 c 0.0092,0.009 0.02745,0.009 0.03661,0.009 0.109824,0 0.201369,-0.0732 0.219675,-0.18305 l 0.347861,-1.98613 c 0.0092,-0.009 0.01837,-0.0275 0.02745,-0.0549 0.09152,-0.1739 0.338646,-0.64069 0.723065,-1.05256 0.384405,-0.40271 0.878662,-0.75052 1.455263,-0.74136 0.118998,0 0.219662,-0.10069 0.219662,-0.21967 0,-0.12814 -0.100664,-0.21966 -0.219662,-0.21966 -0.860342,0 -1.510196,0.55831 -1.940373,1.08917 -0.01837,0.0183 -0.04575,0.0458 -0.06405,0.0732 l 0.155597,-0.90612 c 0.01839,-0.11898 -0.05493,-0.23797 -0.173903,-0.25627 -0.118998,-0.0183 -0.228822,0.0641 -0.247129,0.18305 l -0.357021,1.99529 c 0,0.009 0,0.009 0,0.009 l -0.356938,2.01359 c -0.02748,0.11898 0.0549,0.22881 0.173889,0.24712 z"
     id="path27" />
  <path
     style="font-style:oblique;font-size:38.8513px;line-height:0px;font-family:Quicksand;-inkscape-font-specification:'Quicksand Oblique';letter-spacing:-0.416262px;word-spacing:0px;fill:#ffffff;fill-opacity:1;fill-rule:evenodd;stroke-width:0.437536;stroke-linecap:square;stroke-miterlimit:0.2;paint-order:markers stroke fill"
     d="m 80.002145,123.53854 h -1.15323 l 0.283741,-1.67494 c 0.01838,-0.11898 -0.06408,-0.22882 -0.183076,-0.25627 -0.128131,-0.0183 -0.237955,0.0641 -0.265421,0.18305 l -0.283742,1.74816 h -0.668132 c -0.128131,0 -0.228822,0.10068 -0.228822,0.22882 0,0.11898 0.100691,0.21966 0.228822,0.21966 h 0.585775 l -0.585775,3.20344 c 0,0.0458 -0.0092,0.0915 -0.0092,0.13729 0,0.18306 0.07321,0.35696 0.201356,0.4851 0.12813,0.12813 0.302033,0.20136 0.494243,0.20136 0,0 0,0 0,0 0.12813,0 0.228795,-0.10068 0.228795,-0.22882 0,-0.11899 -0.100665,-0.21967 -0.228795,-0.21967 -0.164757,-0.009 -0.237982,-0.0915 -0.247129,-0.23797 0,-0.0183 0,-0.0458 0.0092,-0.0641 l 0.594949,-3.27666 h 1.226441 c 0.118998,0 0.219675,-0.10068 0.219675,-0.21966 0,-0.12814 -0.100677,-0.22882 -0.219675,-0.22882 z"
     id="path26" />
  <path
     style="font-style:oblique;font-size:38.8513px;line-height:0px;font-family:Quicksand;-inkscape-font-specification:'Quicksand Oblique';letter-spacing:-0.416262px;word-spacing:0px;fill:#ffffff;fill-opacity:1;fill-rule:evenodd;stroke-width:0.437536;stroke-linecap:square;stroke-miterlimit:0.2;paint-order:markers stroke fill"
     d="m 73.24568,127.34655 c 0.302047,0.28374 0.823743,0.62239 1.501035,0.63154 0.439338,0 0.860356,-0.12814 1.208162,-0.35696 0.33866,-0.21966 0.604081,-0.54001 0.668147,-0.91527 0.07321,-0.37525 -0.08237,-0.6773 -0.347793,-0.8695 -0.256288,-0.19221 -0.622387,-0.32034 -1.043419,-0.39357 l -0.01838,-0.009 c -0.347792,-0.0641 -0.640693,-0.1739 -0.814583,-0.30204 -0.164756,-0.13729 -0.228822,-0.26543 -0.192209,-0.44848 0.02745,-0.18306 0.164743,-0.36611 0.384405,-0.51255 0.228822,-0.14645 0.530856,-0.24712 0.85121,-0.24712 0.439337,0 0.750517,0.21966 1.052551,0.43932 0.08239,0.0641 0.228822,0.0366 0.311207,-0.0641 0.08236,-0.10069 0.08236,-0.23798 -0.0092,-0.30204 -0.302047,-0.21967 -0.686439,-0.5034 -1.272213,-0.5034 -0.411872,0 -0.805437,0.11898 -1.125777,0.32034 -0.320354,0.21051 -0.567482,0.51255 -0.631561,0.86951 -0.06405,0.3478 0.08239,0.63153 0.329514,0.81459 0.237968,0.18305 0.576614,0.29288 0.97018,0.3661 l 0.0092,0.009 c 0.384391,0.0732 0.704745,0.18305 0.887794,0.3295 0.19221,0.14644 0.256289,0.29288 0.219676,0.50339 -0.02747,0.20136 -0.183063,0.40272 -0.430178,0.56747 -0.237982,0.1556 -0.576628,0.26543 -0.933581,0.26543 -0.512563,0 -0.97934,-0.28373 -1.235614,-0.53086 -0.08239,-0.0824 -0.228822,-0.0641 -0.32034,0.0275 -0.09152,0.0915 -0.100692,0.22882 -0.01838,0.31119 z"
     id="path25" />
  <path
     style="font-style:oblique;font-size:38.8513px;line-height:0px;font-family:Quicksand;-inkscape-font-specification:'Quicksand Oblique';letter-spacing:-0.416262px;word-spacing:0px;fill:#ffffff;fill-opacity:1;fill-rule:evenodd;stroke-width:0.437536;stroke-linecap:square;stroke-miterlimit:0.2;paint-order:markers stroke fill"
     d="m 73.009858,123.52073 c -0.118998,-0.0183 -0.228822,0.0641 -0.247129,0.18305 l -0.430177,2.41631 c -0.128131,0.77798 -0.906115,1.42782 -1.665779,1.41867 -0.677293,-0.009 -1.107471,-0.45764 -1.116631,-1.09832 0,-0.0732 0.0092,-0.1556 0.01838,-0.23797 l 0.421032,-2.42547 c 0.02744,-0.11898 -0.05492,-0.23797 -0.164771,-0.25627 -0.11897,-0.0183 -0.228795,0.0641 -0.256261,0.18305 l -0.430178,2.41631 c -0.01837,0.10983 -0.02747,0.21967 -0.02747,0.32035 0,0.43017 0.164771,0.81458 0.439338,1.08917 0.283741,0.28373 0.668132,0.44848 1.11663,0.44848 0,0 0,0 0,0 0.997633,-0.009 1.912907,-0.77798 2.095957,-1.77562 L 73.18383,123.777 c 0.02745,-0.11898 -0.05491,-0.23797 -0.173903,-0.25627 z"
     id="path24" />
  <path
     style="font-style:oblique;font-size:38.8513px;line-height:0px;font-family:Quicksand;-inkscape-font-specification:'Quicksand Oblique';letter-spacing:-0.416262px;word-spacing:0px;fill:#ffffff;fill-opacity:1;fill-rule:evenodd;stroke-width:0.437536;stroke-linecap:square;stroke-miterlimit:0.2;paint-order:markers stroke fill"
     d="m 68.720575,121.58951 c -0.118984,-0.0275 -0.237954,0.0549 -0.256261,0.18306 l -1.052565,5.95839 c -0.01837,0.11899 0.05492,0.23798 0.18305,0.25628 0.0092,0 0.02747,0 0.03661,0 0.109824,0 0.201356,-0.0732 0.219662,-0.18305 l 1.052552,-5.9584 c 0.01837,-0.11899 -0.06405,-0.23797 -0.18305,-0.25628 z"
     id="path23" />
  <path
     style="font-style:oblique;font-size:38.8513px;line-height:0px;font-family:Quicksand;-inkscape-font-specification:'Quicksand Oblique';letter-spacing:-0.416262px;word-spacing:0px;fill:#ffffff;fill-opacity:1;fill-rule:evenodd;stroke-width:0.437536;stroke-linecap:square;stroke-miterlimit:0.2;paint-order:markers stroke fill"
     d="m 66.539622,121.58951 c -0.118984,-0.0275 -0.237982,0.0549 -0.256288,0.18306 l -1.052552,5.95839 c -0.01837,0.11899 0.05493,0.23798 0.183064,0.25628 0.0092,0 0.02745,0 0.03661,0 0.109824,0 0.201356,-0.0732 0.219662,-0.18305 l 1.052552,-5.9584 c 0.01837,-0.11899 -0.06408,-0.23797 -0.18305,-0.25628 z"
     id="path22" />
  <path
     style="font-style:oblique;font-size:38.8513px;line-height:0px;font-family:Quicksand;-inkscape-font-specification:'Quicksand Oblique';letter-spacing:-0.416262px;word-spacing:0px;fill:#ffffff;fill-opacity:1;fill-rule:evenodd;stroke-width:0.437536;stroke-linecap:square;stroke-miterlimit:0.2;paint-order:markers stroke fill"
     d="m 63.269464,127.98599 c 0.109852,0 0.201369,-0.0732 0.219676,-0.18305 l 1.052565,-5.9584 c 0.01838,-0.11899 -0.06408,-0.23797 -0.18305,-0.25627 -0.118997,-0.0183 -0.237982,0.0549 -0.256288,0.18305 l -1.052565,5.9584 c -0.01837,0.11898 0.05492,0.23797 0.183049,0.25627 0.0092,0 0.02747,0 0.03661,0 z"
     id="text1" />
  <path
     style="font-style:oblique;font-size:38.8513px;line-height:0px;font-family:Quicksand;-inkscape-font-specification:'Quicksand Oblique';letter-spacing:-0.416262px;word-spacing:0px;fill:#ffffff;fill-opacity:1;fill-rule:evenodd;stroke-width:0.437536;stroke-linecap:square;stroke-miterlimit:0.2;paint-order:markers stroke fill"
     d="m 96.098601,135.69121 c 0.0092,0.009 0.02745,0.009 0.03661,0.009 0.109824,0 0.201355,-0.0732 0.219662,-0.18306 l 0.347792,-1.98613 c 0.0092,-0.009 0.01831,-0.0275 0.02747,-0.0549 0.09152,-0.1739 0.338646,-0.64068 0.723065,-1.05256 0.384405,-0.40271 0.878648,-0.75052 1.455276,-0.74136 0.118985,0 0.219662,-0.10068 0.219662,-0.21967 0,-0.12813 -0.100677,-0.21966 -0.219662,-0.21966 -0.860355,0 -1.510195,0.55831 -1.940373,1.08917 -0.01831,0.0183 -0.04576,0.0458 -0.06406,0.0732 l 0.155596,-0.90612 c 0.01829,-0.11898 -0.05492,-0.23797 -0.173903,-0.25627 -0.118984,-0.0183 -0.228822,0.0641 -0.247128,0.18305 l -0.356953,1.99529 c 0,0.009 0,0.009 0,0.009 l -0.356952,2.01359 c -0.02747,0.11899 0.05492,0.22882 0.173903,0.24712 z"
     id="path21" />
  <path
     style="font-style:oblique;font-size:38.8513px;line-height:0px;font-family:Quicksand;-inkscape-font-specification:'Quicksand Oblique';letter-spacing:-0.416262px;word-spacing:0px;fill:#ffffff;fill-opacity:1;fill-rule:evenodd;stroke-width:0.437536;stroke-linecap:square;stroke-miterlimit:0.2;paint-order:markers stroke fill"
     d="m 91.043722,133.83321 c 0,0.5217 0.18305,0.98849 0.51255,1.32714 0.329486,0.33865 0.78713,0.54001 1.317986,0.54001 0.0092,0 0.0092,0 0.0092,0 0.768824,0 1.491888,-0.40272 1.958664,-0.99764 0.08239,-0.0915 0.06408,-0.21967 -0.02745,-0.29289 -0.09153,-0.0824 -0.228822,-0.0641 -0.311194,0.0275 -0.393565,0.49425 -1.006791,0.82374 -1.620018,0.82374 -0.832903,-0.009 -1.400358,-0.60408 -1.400358,-1.42782 0,-0.0915 0,-0.18305 0.01829,-0.27458 h 3.706842 c 0.100678,0 0.183049,-0.0824 0.210502,-0.1739 0,-0.0183 0.0092,-0.0366 0.0092,-0.0549 0.0092,-0.0824 0.01831,-0.1556 0.01831,-0.23798 0,-0.5217 -0.192195,-0.98849 -0.521695,-1.32713 -0.3295,-0.33865 -0.787131,-0.54001 -1.317985,-0.54001 -1.217308,0.009 -2.306472,0.97933 -2.526148,2.19664 -0.02745,0.14644 -0.03661,0.28373 -0.03661,0.41187 z m 2.562747,-2.16918 c 0.832888,0.009 1.39121,0.60407 1.400357,1.42781 0,0.009 0,0.009 0,0.0183 h -3.386489 c 0.311193,-0.82374 1.144083,-1.45528 1.986132,-1.44613 z"
     id="path20" />
  <path
     style="font-style:oblique;font-size:38.8513px;line-height:0px;font-family:Quicksand;-inkscape-font-specification:'Quicksand Oblique';letter-spacing:-0.416262px;word-spacing:0px;fill:#ffffff;fill-opacity:1;fill-rule:evenodd;stroke-width:0.437536;stroke-linecap:square;stroke-miterlimit:0.2;paint-order:markers stroke fill"
     d="m 91.07771,131.2247 h -1.153229 l 0.283727,-1.67495 c 0.01831,-0.11898 -0.06406,-0.22881 -0.18305,-0.25627 -0.128144,-0.0183 -0.237968,0.0641 -0.265434,0.18305 l -0.283728,1.74817 H 88.80785 c -0.128144,0 -0.228822,0.10068 -0.228822,0.22881 0,0.11899 0.100678,0.21967 0.228822,0.21967 h 0.585761 l -0.585761,3.20344 c 0,0.0458 -0.0092,0.0915 -0.0092,0.13729 0,0.18305 0.07321,0.35695 0.201356,0.48509 0.12813,0.12814 0.302034,0.20136 0.494243,0.20136 0,0 0,0 0,0 0.128131,0 0.228822,-0.10068 0.228822,-0.22882 0,-0.11898 -0.100691,-0.21966 -0.228822,-0.21966 -0.164743,-0.009 -0.237968,-0.0915 -0.247128,-0.23797 0,-0.0183 0,-0.0458 0.0092,-0.0641 l 0.594934,-3.27666 h 1.226455 c 0.118984,0 0.219662,-0.10068 0.219662,-0.21967 0,-0.12813 -0.100678,-0.22881 -0.219662,-0.22881 z"
     id="path19" />
  <path
     style="font-style:oblique;font-size:38.8513px;line-height:0px;font-family:Quicksand;-inkscape-font-specification:'Quicksand Oblique';letter-spacing:-0.416262px;word-spacing:0px;fill:#ffffff;fill-opacity:1;fill-rule:evenodd;stroke-width:0.437536;stroke-linecap:square;stroke-miterlimit:0.2;paint-order:markers stroke fill"
     d="m 83.634054,133.80576 c 0,0.53085 0.201356,1.00679 0.558309,1.35459 0.347806,0.33865 0.842049,0.54001 1.409517,0.54001 0,0 0,0 0,0 0.530856,0 1.052552,-0.18305 1.49189,-0.47594 0.100677,-0.0732 0.118984,-0.20136 0.0549,-0.30204 -0.06406,-0.10068 -0.201356,-0.12813 -0.302034,-0.0641 -0.375259,0.25628 -0.814583,0.40272 -1.244761,0.40272 -0.915274,-0.009 -1.528502,-0.62238 -1.528502,-1.45527 0,-0.10069 0.0092,-0.19221 0.02745,-0.30205 0.164757,-0.99764 1.180696,-1.84884 2.205808,-1.83968 0.448471,0 0.814583,0.14644 1.080004,0.38441 0.08238,0.0824 0.219676,0.0732 0.302047,-0.0183 0.08237,-0.0915 0.07323,-0.22881 -0.0092,-0.31119 -0.347807,-0.31119 -0.83289,-0.49424 -1.372906,-0.49424 -1.25392,0.009 -2.41631,0.97018 -2.635972,2.2058 -0.02745,0.12813 -0.03661,0.24712 -0.03661,0.37526 z"
     id="path18" />
  <path
     style="font-style:oblique;font-size:38.8513px;line-height:0px;font-family:Quicksand;-inkscape-font-specification:'Quicksand Oblique';letter-spacing:-0.416262px;word-spacing:0px;fill:#ffffff;fill-opacity:1;fill-rule:evenodd;stroke-width:0.437536;stroke-linecap:square;stroke-miterlimit:0.2;paint-order:markers stroke fill"
     d="m 79.970372,135.70951 c 0,0 0,0 0,0 0.686439,-0.009 1.327132,-0.32949 1.784763,-0.84204 l -0.100678,0.58577 c -0.01831,0.11898 0.05492,0.22881 0.173903,0.25627 0.01831,0 0.02745,0 0.03661,0 0.109837,0 0.201355,-0.0732 0.219662,-0.18305 l 0.713905,-4.02718 c 0.01831,-0.11899 -0.06406,-0.22882 -0.18305,-0.25628 -0.118984,-0.0183 -0.228808,0.0641 -0.247128,0.18306 l -0.128131,0.72306 c -0.07322,-0.13729 -0.164743,-0.25628 -0.265421,-0.36611 -0.320353,-0.33865 -0.768837,-0.54001 -1.290533,-0.54001 -1.180696,0.009 -2.242407,0.98849 -2.462069,2.19665 -0.02747,0.13729 -0.03661,0.27458 -0.03661,0.41187 0,0.5217 0.173903,0.97934 0.494243,1.31798 0.32034,0.33865 0.768824,0.54001 1.290534,0.54001 z m -1.317986,-2.19664 c 0.173889,-1.0068 1.09831,-1.83054 2.022731,-1.83054 0,0 0.0092,0 0.0092,0 0.814597,0.009 1.345452,0.59493 1.354599,1.41867 0,0.10983 -0.0092,0.21966 -0.02745,0.33865 -0.173903,1.01594 -1.11663,1.83969 -2.041051,1.83053 -0.796277,-0.009 -1.345439,-0.59492 -1.354599,-1.41866 0,-0.10983 0.0092,-0.21967 0.03661,-0.33865 z"
     id="path17" />
  <path
     style="font-style:oblique;font-size:38.8513px;line-height:0px;font-family:Quicksand;-inkscape-font-specification:'Quicksand Oblique';letter-spacing:-0.416262px;word-spacing:0px;fill:#ffffff;fill-opacity:1;fill-rule:evenodd;stroke-width:0.437536;stroke-linecap:square;stroke-miterlimit:0.2;paint-order:markers stroke fill"
     d="m 74.952022,135.69121 c 0.0092,0.009 0.02747,0.009 0.03664,0.009 0.109824,0 0.201356,-0.0732 0.219649,-0.18306 l 0.347792,-1.98613 c 0.0092,-0.009 0.01838,-0.0275 0.02747,-0.0549 0.09153,-0.17391 0.338659,-0.64069 0.723078,-1.05256 0.384447,-0.40272 0.87869,-0.75052 1.455318,-0.74137 0.118984,0 0.219662,-0.10068 0.219662,-0.21967 0,-0.12813 -0.100678,-0.21966 -0.219662,-0.21966 -0.860356,0 -1.51025,0.55831 -1.940428,1.08917 -0.01838,0.0183 -0.04575,0.0458 -0.06405,0.0732 l 0.15557,-0.90611 c 0.01837,-0.11899 -0.0549,-0.23798 -0.173876,-0.25628 -0.118998,-0.0183 -0.228822,0.0641 -0.247128,0.18305 l -0.356953,1.99529 c 0,0.009 0,0.009 0,0.009 l -0.356953,2.0136 c -0.02747,0.11898 0.05491,0.22881 0.173876,0.24712 z"
     id="path16" />
  <path
     style="font-style:oblique;font-size:38.8513px;line-height:0px;font-family:Quicksand;-inkscape-font-specification:'Quicksand Oblique';letter-spacing:-0.416262px;word-spacing:0px;fill:#ffffff;fill-opacity:1;fill-rule:evenodd;stroke-width:0.437536;stroke-linecap:square;stroke-miterlimit:0.2;paint-order:markers stroke fill"
     d="m 70.940547,135.70952 c 0,0 0,0 0,0 0.686439,-0.009 1.327133,-0.3295 1.784777,-0.84205 l -0.100692,0.58577 c -0.01837,0.11899 0.05492,0.22882 0.173917,0.25628 0.01838,0 0.02744,0 0.0366,0 0.109838,0 0.201356,-0.0732 0.219662,-0.18306 l 0.713905,-4.02718 c 0.01838,-0.11899 -0.06405,-0.22882 -0.183049,-0.25628 -0.118984,-0.0183 -0.228822,0.0641 -0.247115,0.18306 l -0.128144,0.72306 c -0.07321,-0.13729 -0.164743,-0.25628 -0.265421,-0.36611 -0.320354,-0.33865 -0.768824,-0.54001 -1.29052,-0.54001 -1.180723,0.009 -2.242421,0.98849 -2.462083,2.19665 -0.02747,0.13729 -0.0366,0.27458 -0.0366,0.41187 0,0.5217 0.173876,0.97934 0.494216,1.31799 0.320354,0.33865 0.768824,0.54001 1.290547,0.54001 z m -1.317986,-2.19665 c 0.173903,-1.00679 1.098311,-1.83054 2.022731,-1.83054 0,0 0.0092,0 0.0092,0 0.814584,0.009 1.345439,0.59493 1.354599,1.41867 0,0.10983 -0.0092,0.21967 -0.02747,0.33865 -0.173903,1.01595 -1.11663,1.83969 -2.041038,1.83053 -0.79629,-0.009 -1.345452,-0.59492 -1.354599,-1.41866 0,-0.10983 0.0092,-0.21966 0.03661,-0.33865 z"
     id="path15" />
  <path
     style="font-style:oblique;font-size:38.8513px;line-height:0px;font-family:Quicksand;-inkscape-font-specification:'Quicksand Oblique';letter-spacing:-0.416262px;word-spacing:0px;fill:#ffffff;fill-opacity:1;fill-rule:evenodd;stroke-width:0.437536;stroke-linecap:square;stroke-miterlimit:0.2;paint-order:markers stroke fill"
     d="m 63.945253,135.50816 c 0,0.0549 0.02748,0.10983 0.07323,0.15559 0.02747,0.0275 0.07322,0.0458 0.109824,0.0549 0.0092,0 0.01837,0 0.01837,0 0.0092,0 0.01838,0 0.02748,0 0,0 0,0 0,0 0.0092,0 0.0092,0 0.01837,0 0.0092,0 0.01837,0 0.02747,0 0,0 0.0092,0 0.01837,-0.009 0,0 0.0092,0 0.01838,0 0.0092,-0.009 0.0092,-0.009 0.01837,-0.009 0,-0.009 0.0092,-0.009 0.01837,-0.0183 0,0 0.0092,0 0.0092,-0.009 0.0092,0 0.01838,-0.009 0.01838,-0.009 0.0092,-0.009 0.0092,-0.009 0.01837,-0.0183 0,0 0.0092,-0.009 0.0092,-0.0183 0.0092,0 0.0092,-0.009 0.01837,-0.009 0,-0.009 0,-0.0183 0.0092,-0.0275 0,0 0,-0.009 0.0092,-0.009 0,-0.0183 0,-0.0274 0.0092,-0.0366 0,0 0,-0.009 0,-0.009 l 0.439338,-2.40716 c 0.137304,-0.78713 0.924435,-1.46443 1.711565,-1.45528 0.695599,0.009 1.144083,0.47594 1.153243,1.13493 0,0.0732 -0.0092,0.1556 -0.01837,0.24713 l -0.439338,2.40715 c -0.02747,0.11899 0.05491,0.23798 0.173903,0.25628 0.01838,0 0.02745,0 0.04575,0 0.100692,0 0.201356,-0.0732 0.21969,-0.18305 l 0.43931,-2.40716 c 0.01838,-0.10983 0.02747,-0.21966 0.02747,-0.32035 0,-0.43932 -0.164756,-0.84204 -0.44847,-1.12578 -0.292901,-0.28373 -0.695613,-0.45763 -1.153257,-0.45763 -0.558308,0.009 -1.089164,0.24712 -1.482729,0.62238 l 0.384405,-2.26986 c 0.01838,-0.11899 -0.06405,-0.23797 -0.183049,-0.25628 -0.128131,-0.0275 -0.237969,0.0549 -0.265435,0.18306 l -1.043391,5.95839 c -0.0092,0.009 -0.0092,0.0275 -0.0092,0.0458 z"
     id="path14" />
  <path
     style="font-style:oblique;font-size:38.8513px;line-height:0px;font-family:Quicksand;-inkscape-font-specification:'Quicksand Oblique';letter-spacing:-0.416262px;word-spacing:0px;fill:#ffffff;fill-opacity:1;fill-rule:evenodd;stroke-width:0.437536;stroke-linecap:square;stroke-miterlimit:0.2;paint-order:markers stroke fill"
     d="m 60.363956,135.70952 c 0.768824,0 1.519341,-0.25628 2.150875,-0.68646 0.100678,-0.0732 0.128131,-0.21051 0.0549,-0.31119 -0.07321,-0.10068 -0.210488,-0.12813 -0.31118,-0.0549 -0.558308,0.37526 -1.226468,0.60407 -1.8946,0.60407 -1.400372,-0.009 -2.352245,-0.96103 -2.352245,-2.25156 0,-0.14644 0.0092,-0.30203 0.03661,-0.46678 0.265435,-1.5285 1.793909,-2.80073 3.368198,-2.79157 0.668132,0 1.235601,0.22881 1.647472,0.59492 0.09152,0.0824 0.228822,0.0732 0.31118,-0.0183 0.08239,-0.0915 0.08239,-0.23797 -0.01837,-0.32035 -0.494229,-0.43933 -1.171522,-0.70475 -1.940346,-0.70475 -1.803083,0.009 -3.487195,1.40036 -3.807535,3.16683 -0.03661,0.18305 -0.04574,0.3661 -0.04574,0.54 0,0.75968 0.292873,1.44613 0.787117,1.93122 0.503403,0.48509 1.208161,0.76883 2.013598,0.76883 z"
     id="text3" />
  <path
     style="font-style:oblique;font-size:36.7329px;line-height:0px;font-family:Quicksand;-inkscape-font-specification:'Quicksand Oblique';letter-spacing:-0.275497px;word-spacing:0px;fill:#ffffff;fill-opacity:1;fill-rule:evenodd;stroke-width:0.437536;stroke-linecap:square;stroke-miterlimit:0.2;paint-order:markers stroke fill"
     d="m 94.776431,143.23656 c 0.0086,0.009 0.02595,0.009 0.0346,0.009 0.10385,0 0.190391,-0.0692 0.2077,-0.17308 l 0.32883,-1.87783 c 0.0086,-0.009 0.01732,-0.026 0.02596,-0.0519 0.08654,-0.16441 0.32019,-0.60575 0.683636,-0.99516 0.363447,-0.38076 0.830743,-0.7096 1.375927,-0.70095 0.11249,0 0.207685,-0.0952 0.207685,-0.20768 0,-0.12115 -0.09519,-0.20769 -0.207685,-0.20769 -0.813449,0 -1.427852,0.52787 -1.834569,1.02978 -0.01732,0.0173 -0.04327,0.0433 -0.06058,0.0692 l 0.14712,-0.85671 c 0.01731,-0.11249 -0.05192,-0.22499 -0.164428,-0.2423 -0.11249,-0.0173 -0.21634,0.0606 -0.233648,0.17307 l -0.337485,1.8865 c 0,0.009 0,0.009 0,0.009 l -0.337497,1.90379 c -0.02596,0.1125 0.05192,0.21634 0.164428,0.23365 z"
     id="path13" />
  <path
     style="font-style:oblique;font-size:36.7329px;line-height:0px;font-family:Quicksand;-inkscape-font-specification:'Quicksand Oblique';letter-spacing:-0.275497px;word-spacing:0px;fill:#ffffff;fill-opacity:1;fill-rule:evenodd;stroke-width:0.437536;stroke-linecap:square;stroke-miterlimit:0.2;paint-order:markers stroke fill"
     d="m 89.904698,141.4742 c 0,0.49326 0.173069,0.93459 0.484604,1.25478 0.311522,0.32018 0.744202,0.51056 1.246115,0.51056 0.0086,0 0.0086,0 0.0086,0 0.726907,0 1.410543,-0.38076 1.851877,-0.94324 0.07789,-0.0865 0.06058,-0.20769 -0.02596,-0.27692 -0.08653,-0.0779 -0.21634,-0.0606 -0.294213,0.026 -0.372115,0.4673 -0.951901,0.77883 -1.531701,0.77883 -0.787472,-0.009 -1.324002,-0.57114 -1.324002,-1.34997 0,-0.0865 0,-0.17307 0.01732,-0.25961 h 3.504709 c 0.09519,0 0.173068,-0.0779 0.19903,-0.16442 0,-0.0173 0.0086,-0.0346 0.0086,-0.0519 0.0086,-0.0779 0.01732,-0.14711 0.01732,-0.22499 0,-0.49326 -0.181723,-0.93459 -0.493257,-1.25478 -0.311536,-0.32018 -0.744216,-0.51056 -1.246115,-0.51056 -1.150946,0.009 -2.18072,0.92594 -2.388406,2.07687 -0.02596,0.13846 -0.03462,0.26826 -0.03462,0.38941 z m 2.423009,-2.05091 c 0.787486,0.009 1.315347,0.57114 1.324002,1.34997 0,0.009 0,0.009 0,0.0173 h -3.201841 c 0.294227,-0.77882 1.081713,-1.37592 1.877839,-1.36727 z"
     id="path12" />
  <path
     style="font-style:oblique;font-size:36.7329px;line-height:0px;font-family:Quicksand;-inkscape-font-specification:'Quicksand Oblique';letter-spacing:-0.275497px;word-spacing:0px;fill:#ffffff;fill-opacity:1;fill-rule:evenodd;stroke-width:0.437536;stroke-linecap:square;stroke-miterlimit:0.2;paint-order:markers stroke fill"
     d="m 88.178381,142.99858 c -0.02596,0.1125 0.05191,0.225 0.164415,0.2423 0.01731,0 0.01731,0 0.02596,0 0.103836,0 0.190378,-0.0692 0.207686,-0.16441 l 0.406717,-2.29321 c 0.01732,-0.10385 0.02596,-0.20769 0.02596,-0.30288 0,-0.41538 -0.155761,-0.77883 -0.415372,-1.03844 -0.25961,-0.26826 -0.640365,-0.42402 -1.064404,-0.42402 -0.5019,0.009 -0.986504,0.22499 -1.358619,0.57979 l 0.06058,-0.33749 c 0.01732,-0.1125 -0.05192,-0.21635 -0.173069,-0.23365 -0.112504,-0.026 -0.224994,0.0519 -0.242302,0.16442 l -0.259611,1.51438 c 0,0 0,0 0,0.009 l -0.406717,2.28456 c -0.01732,0.1125 0.05192,0.22499 0.164415,0.2423 0.0086,0 0.0086,0 0.01732,0 0.0086,0 0.01731,0 0.02596,0 0,0 0,0 0,0 0,0 0.0086,0 0.01731,0 0.0086,0 0.0086,0 0.01732,0 0.0086,0 0.0086,0 0.01731,-0.009 0.0086,0 0.01732,0 0.02596,0 0,-0.009 0.0086,-0.009 0.0086,-0.009 0.0086,-0.009 0.01732,-0.009 0.02596,-0.009 0,-0.009 0,-0.009 0.0086,-0.009 0.0086,-0.009 0.0086,-0.0173 0.01732,-0.0173 0,-0.009 0.0086,-0.009 0.0086,-0.009 0.0086,-0.009 0.0086,-0.0173 0.01731,-0.026 0,0 0,0 0.0086,-0.009 0,-0.009 0.0086,-0.0173 0.0086,-0.026 0,0 0.0086,-0.009 0.0086,-0.009 0,-0.009 0.0086,-0.026 0.0086,-0.0346 l 0.398063,-2.30187 c 0.129812,-0.73556 0.86536,-1.34996 1.574958,-1.34131 0.649034,0.009 1.055751,0.44133 1.064405,1.04709 0,0.0779 -0.0086,0.14711 -0.01732,0.23365 z"
     id="path11" />
  <path
     style="font-style:oblique;font-size:36.7329px;line-height:0px;font-family:Quicksand;-inkscape-font-specification:'Quicksand Oblique';letter-spacing:-0.275497px;word-spacing:0px;fill:#ffffff;fill-opacity:1;fill-rule:evenodd;stroke-width:0.437536;stroke-linecap:square;stroke-miterlimit:0.2;paint-order:markers stroke fill"
     d="m 81.581081,143.26252 c 0,0 0,0 0.0086,0 0.623071,0 1.22882,-0.31153 1.670154,-0.77883 l -0.06923,0.41538 c -0.155761,0.89132 -1.038429,1.64419 -1.895134,1.63553 -0.259611,0 -0.484605,-0.0606 -0.674982,-0.15576 -0.10385,-0.0519 -0.21634,-0.0173 -0.276919,0.0779 -0.05192,0.10384 -0.01732,0.22499 0.08653,0.27692 0.250956,0.13845 0.545183,0.21634 0.865373,0.21634 1.081699,-0.009 2.094179,-0.87402 2.301865,-1.97303 l 0.311522,-1.78265 c 0,0 0,0 0,0 0,0 0,0 0,0 l 0.337497,-1.91245 c 0.02596,-0.12115 -0.05192,-0.22499 -0.173069,-0.25095 -0.112504,-0.0173 -0.207699,0.0606 -0.233648,0.17307 l -0.121158,0.69229 c -0.06058,-0.12981 -0.147107,-0.25096 -0.242302,-0.3548 -0.311536,-0.32018 -0.744215,-0.51056 -1.237474,-0.51056 -1.090354,0.009 -2.111474,0.94324 -2.31916,2.08552 -0.02596,0.13846 -0.04327,0.26826 -0.04327,0.39807 0,0.49325 0.181723,0.93459 0.47595,1.23746 0.302868,0.32019 0.735561,0.51057 1.228806,0.51057 z m -1.254768,-2.06822 c 0.155761,-0.96055 1.055737,-1.73938 1.903801,-1.73938 0,0 0.0086,0 0.0086,0 0.770164,0 1.289385,0.55384 1.298039,1.35862 0,0.0952 -0.0086,0.19904 -0.03462,0.30288 -0.164415,0.97786 -1.055737,1.73938 -1.912442,1.73072 -0.770178,0 -1.289399,-0.53652 -1.298053,-1.33265 0,-0.10385 0.0086,-0.20769 0.03462,-0.32019 z"
     id="path10" />
  <path
     id="path9"
     style="font-style:oblique;font-size:36.7329px;line-height:0px;font-family:Quicksand;-inkscape-font-specification:'Quicksand Oblique';letter-spacing:-0.275497px;word-spacing:0px;fill:#ffffff;fill-opacity:1;fill-rule:evenodd;stroke-width:0.437536;stroke-linecap:square;stroke-miterlimit:0.2;paint-order:markers stroke fill"
     d="m 78.765915,137.50719 c -0.09133,0.005 -0.17955,0.0756 -0.194698,0.16649 l -0.03442,0.19921 c -0.01731,0.1125 0.05173,0.21615 0.164224,0.2421 h 0.03442 c 0.103849,0 0.190377,-0.0694 0.207686,-0.17325 l 0.03498,-0.19018 c 0.01732,-0.1125 -0.0521,-0.2248 -0.17326,-0.24211 -0.01299,-0.002 -0.02588,-0.003 -0.03894,-0.002 z m -0.213879,1.50624 c -0.105121,9.6e-4 -0.204993,0.0684 -0.221221,0.17382 l -0.665931,3.83359 c -0.02596,0.10384 0.05173,0.21633 0.164223,0.23364 h 0.03443 c 0.09519,0 0.181901,-0.0696 0.199209,-0.16479 l 0.674955,-3.82456 c 0.02596,-0.12115 -0.05172,-0.22517 -0.164224,-0.25114 -0.007,-4.1e-4 -0.01444,-6.8e-4 -0.02144,-4.1e-4 z" />
  <path
     style="font-style:oblique;font-size:36.7329px;line-height:0px;font-family:Quicksand;-inkscape-font-specification:'Quicksand Oblique';letter-spacing:-0.275497px;word-spacing:0px;fill:#ffffff;fill-opacity:1;fill-rule:evenodd;stroke-width:0.437536;stroke-linecap:square;stroke-miterlimit:0.2;paint-order:markers stroke fill"
     d="m 73.340588,142.65677 c 0.285573,0.26826 0.778818,0.58844 1.419197,0.5971 0.415386,0 0.813449,-0.12116 1.142279,-0.3375 0.320176,-0.20768 0.571146,-0.51056 0.631711,-0.86536 0.06923,-0.3548 -0.07789,-0.64037 -0.32883,-0.82209 -0.242316,-0.18173 -0.588454,-0.30288 -0.986517,-0.37211 l -0.0172,-0.009 c -0.328858,-0.0606 -0.605763,-0.16442 -0.770192,-0.28557 -0.155774,-0.1298 -0.216339,-0.25095 -0.181737,-0.42402 0.02596,-0.17308 0.155775,-0.34615 0.363461,-0.48461 0.21634,-0.13846 0.501913,-0.23365 0.804794,-0.23365 0.415385,0 0.709599,0.20769 0.995172,0.41538 0.07789,0.0606 0.216339,0.0346 0.294199,-0.0606 0.07789,-0.0952 0.07789,-0.22499 -0.0087,-0.28557 -0.285546,-0.20768 -0.649006,-0.47595 -1.20283,-0.47595 -0.389423,0 -0.761524,0.1125 -1.064405,0.30288 -0.302868,0.19903 -0.536516,0.4846 -0.597095,0.8221 -0.06058,0.32883 0.07789,0.5971 0.311522,0.77017 0.224994,0.17307 0.545183,0.27691 0.917284,0.34614 l 0.0088,0.009 c 0.363433,0.0692 0.666328,0.17308 0.839411,0.31153 0.181709,0.13846 0.242302,0.27692 0.207672,0.47595 -0.02596,0.19038 -0.173069,0.38076 -0.406718,0.53653 -0.225007,0.14711 -0.545183,0.25095 -0.882681,0.25095 -0.484591,0 -0.925925,-0.26826 -1.168227,-0.50191 -0.07789,-0.0779 -0.21634,-0.0606 -0.302895,0.026 -0.08653,0.0865 -0.09517,0.21634 -0.01718,0.29423 z"
     id="path7" />
  <path
     style="font-style:oblique;font-size:36.7329px;line-height:0px;font-family:Quicksand;-inkscape-font-specification:'Quicksand Oblique';letter-spacing:-0.275497px;word-spacing:0px;fill:#ffffff;fill-opacity:1;fill-rule:evenodd;stroke-width:0.437536;stroke-linecap:square;stroke-miterlimit:0.2;paint-order:markers stroke fill"
     d="m 68.229203,141.4842 c 0,0.49326 0.173069,0.93459 0.484605,1.25478 0.311522,0.32018 0.744201,0.51056 1.246114,0.51056 0.0087,0 0.0087,0 0.0087,0 0.726893,0 1.41053,-0.38076 1.851863,-0.94324 0.07789,-0.0865 0.06058,-0.20769 -0.02596,-0.27692 -0.08653,-0.0779 -0.216326,-0.0606 -0.294213,0.026 -0.372101,0.4673 -0.951901,0.77883 -1.531688,0.77883 -0.787486,-0.009 -1.324015,-0.57114 -1.324015,-1.34997 0,-0.0865 0,-0.17307 0.0172,-0.25961 h 3.504708 c 0.0952,0 0.173083,-0.0779 0.199046,-0.16442 0,-0.0173 0.0087,-0.0346 0.0087,-0.0519 0.0088,-0.0779 0.01744,-0.14711 0.01744,-0.22499 0,-0.49326 -0.181737,-0.93459 -0.493272,-1.25478 -0.311535,-0.32018 -0.744201,-0.51056 -1.246114,-0.51056 -1.150933,0.009 -2.180707,0.92594 -2.388407,2.07687 -0.02596,0.13846 -0.0346,0.26826 -0.0346,0.38941 z m 2.423023,-2.05091 c 0.787472,0.009 1.315348,0.57114 1.323988,1.34997 0,0.009 0,0.009 0,0.0173 h -3.201841 c 0.294214,-0.77882 1.0817,-1.37592 1.877853,-1.36727 z"
     id="path6" />
  <path
     style="font-style:oblique;font-size:36.7329px;line-height:0px;font-family:Quicksand;-inkscape-font-specification:'Quicksand Oblique';letter-spacing:-0.275497px;word-spacing:0px;fill:#ffffff;fill-opacity:1;fill-rule:evenodd;stroke-width:0.437536;stroke-linecap:square;stroke-miterlimit:0.2;paint-order:markers stroke fill"
     d="m 62.820242,143.26252 c 0.01718,0 0.02595,0 0.03463,0 0.0087,0 0.0087,0 0.0087,0 0,0 0,0 0,0 h 1.124983 c 1.67014,-0.009 3.219136,-1.33266 3.522017,-2.99416 0.02596,-0.18172 0.04326,-0.35479 0.04326,-0.52787 0,-0.70959 -0.25961,-1.34996 -0.718239,-1.8086 -0.458628,-0.45865 -1.107661,-0.72691 -1.851863,-0.72691 h -1.124984 c 0,0 0,0 -0.0087,0 -0.09521,0 -0.190404,0.0692 -0.207699,0.17307 l -0.995172,5.63351 c -0.0172,0.12115 0.06058,0.225 0.17307,0.25096 z m 1.211497,-5.63351 h 0.951915 c 1.280731,0.009 2.13745,0.89998 2.14609,2.11148 0,0.14711 -0.0087,0.30288 -0.0346,0.45865 -0.250971,1.44515 -1.670168,2.648 -3.10666,2.63935 h -0.874 z"
     id="text5" />
  <path
     id="path127"
     style="display:inline;opacity:1;fill:#ffffff;fill-opacity:1;fill-rule:evenodd;stroke:none;stroke-width:0.326648;stroke-linecap:square;stroke-dasharray:none;stroke-opacity:1"
     inkscape:label="B Monogram"
     d="m 74.504586,5.2987092 c 0.03105,0.0379 0.307147,0.3786 0.564946,0.79537 l -1.073747,1.8597606 1.442192,2.4972402 -1.400089,2.42588 1.428155,2.47267 -1.448044,2.50775 1.345119,2.32997 -1.581392,2.73819 1.486657,2.57443 -1.373191,2.37792 0.679569,1.17669 c -0.149489,0.13164 -0.32274,0.27008 -0.525173,0.4164 8.96e-4,-5e-5 0.0051,5e-5 0.0061,0 -0.846873,0.54702 -1.971854,0.90718 -3.404888,1.56618 l 3.735906,0.0409 -8.96e-4,4.8e-4 c 3.449373,0.0475 5.685038,-0.008 8.263675,2.34751 l -0.0026,4.9e-4 c 0.397978,0.36334 0.803354,0.78476 1.223475,1.27258 2.797136,-3.14096 7.270076,-2.39915 11.472063,-4.61431 4.761037,-2.50987 5.189887,-5.23261 5.199147,-7.47534 0.0193,-4.64436 -2.816547,-6.74661 -2.816547,-6.74661 0,0 -1.64158,-1.12448 -1.696,-1.69835 -0.10847,-1.14307 1.29289,-2.17721 1.37902,-2.22002 -0.1242,0.0521 -4.075469,1.70183 -7.243728,2.09604 0,0 6.540668,-2.35736 7.775928,-4.1312502 0.85461,-1.22724 0.61332,-3.0369006 -0.8398,-3.9043506 -0.98057,-0.58065 -2.10104,-0.6881 -5.920842,-0.70493 -3.778712,-0.0168 -16.403586,-0.003 -16.674732,-0.003 z m 11.86273,1.55448 c 1.651566,-0.01 2.98591,1.3015406 2.823559,2.4364106 -0.582483,4.0718702 -5.65888,6.9754002 -5.224886,9.3608202 -0.0036,0.53994 0.193641,1.09218 0.617588,1.44337 0.915833,0.8581 2.400474,1.21705 3.482084,0.61641 2.623841,-1.4571 1.875613,-3.92621 0.890113,-4.24471 -1.061504,-0.34308 -2.16715,0.44476 -1.881982,1.39656 1.824431,-2.37352 3.216209,1.40775 0.362587,1.74632 -0.727982,0.13386 -1.996179,-0.47757 -2.166209,-1.32756 -0.229208,-1.14578 0.626228,-2.87272 2.746366,-2.91364 5.686104,-0.1098 7.406417,6.57963 4.527763,10.51996 -1.402703,-1.41857 -2.728798,-1.23041 -3.669231,-1.09013 0.661042,0.66481 2.014138,2.5543 0.05732,3.18734 -1.214429,0.40831 -6.598076,0.28907 -6.586382,-3.18734 -0.249605,-1.59162 0.417781,-1.74535 0.931047,-2.25862 0.270925,-0.27092 0.601282,-0.43776 0.780176,-0.54624 0.0446,-0.0271 0.06462,-0.0585 0.06082,-0.0877 -0.0033,-0.0278 -0.0288,-0.0536 -0.07486,-0.0725 -0.445473,-0.18299 -1.598927,-0.72451 -1.598927,-1.42698 0,-1.16137 0.01168,-2.78317 0.01168,-4.41783 0,-0.54504 1.131322,-1.5015 1.435177,-1.74864 0.04084,-0.0332 0.03702,-0.0803 -0.0082,-0.10761 -0.317508,-0.19176 -1.442194,-0.92339 -1.442194,-1.6621 0,-1.64718 8.96e-4,-4.0583602 -0.007,-5.5898208 z m -9.126889,1.3205506 c 0.578252,2.4e-4 1.064598,0.35248 1.527583,0.79654 0.03536,0.034 0.08961,0.0314 0.121644,-0.006 0.408694,-0.47407 0.8773,-0.85413 1.642213,-0.76845 0.08939,0.01 0.104629,0.0702 0.03623,0.12866 -0.722316,0.6177 -1.222792,1.32331 -1.703029,2.0363802 -0.0455,0.0675 -0.119112,0.0674 -0.164921,0 -0.464061,-0.6828002 -0.953896,-1.3752302 -1.626997,-2.0223402 -0.07699,-0.074 -0.05611,-0.15164 0.05029,-0.16025 0.03939,-0.003 0.07842,-0.005 0.116969,-0.005 z m -1.453894,0.63629 c 0,0 0.885043,0.19858 1.200075,0.44215 0.325387,0.25156 0.941317,1.0597602 0.948596,1.1532802 -1.5e-5,4.6e-4 1e-4,0.002 0,0.003 h -8.96e-4 v 8.9e-4 9e-4 h -8.96e-4 v 8.9e-4 h -8.95e-4 -8.96e-4 c -0.356275,-0.055 -1.039817,-0.0662 -1.41192,-0.4023 C 75.835819,9.3911698 75.787484,8.8099398 75.787484,8.8099398 Z m 6.120844,0 c 0,0 -0.04833,0.58125 -0.732203,1.1989102 -0.372107,0.33607 -1.055651,0.34733 -1.411788,0.40236 h -8.96e-4 -8.96e-4 v -8.9e-4 h -8.95e-4 v -9e-4 -8.9e-4 h -8.96e-4 c -0.01245,-0.0717 0.618054,-0.9000602 0.948602,-1.1556302 0.315049,-0.24355 1.200076,-0.44213 1.200076,-0.44213 z M 77.862693,11.17393 c 0.507394,0.01 0.656972,0.679 0.755603,1.31821 -0.4618,-0.27135 -1.008997,-0.55757 -1.057384,-1.13808 -0.0081,-0.0967 0.103546,-0.16072 0.195333,-0.17311 0.03701,-0.005 0.07261,-0.008 0.106444,-0.007 z m 1.912393,0 c 0.03387,-4.6e-4 0.06937,0.002 0.106443,0.007 0.09181,0.0124 0.203421,0.0764 0.195338,0.17311 -0.04838,0.58053 -0.59558,0.86672 -1.057379,1.13808 0.09863,-0.6392 0.248209,-1.30851 0.755604,-1.3182 z m 1.005907,0.70998 c 0.02417,0 0.04778,-6e-5 0.07136,0.003 0.148518,0.0135 0.259908,0.17919 0.31698,0.31698 0.205238,0.49548 0.178086,1.17307 -0.09006,1.63752 -0.24218,0.41949 -1.128729,0.66087 -1.128729,0.66087 0,0 0.295843,0.44302 0.332194,0.71934 0.02507,0.19113 0.04678,0.2859 -0.104105,0.40587 -0.233811,0.18589 -0.63728,0.14936 -0.895957,0 -0.171916,-0.0993 -0.269023,-0.39885 -0.269023,-0.39885 v -2.1276 c 0,0 1.018479,-1.2021 1.767356,-1.21527 z m -3.924217,9e-4 c 0.748871,0.0131 1.767362,1.21643 1.767362,1.21646 v 2.12761 c 0,0 -0.09711,0.29842 -0.269022,0.39768 -0.258678,0.14936 -0.662147,0.18588 -0.895963,0 -0.150871,-0.11998 -0.129254,-0.21475 -0.104106,-0.40587 0.03643,-0.27633 0.332183,-0.71935 0.332183,-0.71934 0,0 -0.886542,-0.24139 -1.128728,-0.66087 -0.268152,-0.46445 -0.295285,-1.14206 -0.09006,-1.63752 0.05707,-0.13779 0.168457,-0.30234 0.31697,-0.31582 0.02356,-0.003 0.04712,-0.003 0.07136,-0.003 z m -0.139191,3.99208 c 0.05395,2.3e-4 0.103033,0.014 0.14621,0.0398 0.181188,0.10865 0.203367,0.4048 0.04913,0.66202 -0.153996,0.25692 -0.424752,0.37842 -0.605893,0.27019 -0.18155,-0.1083 -0.204502,-0.40572 -0.05027,-0.6632 0.112855,-0.18826 0.29516,-0.30999 0.460845,-0.30879 z m 4.203768,0 c 0.165691,-9.6e-4 0.346819,0.12052 0.459682,0.30878 0.154219,0.25747 0.132432,0.55371 -0.04913,0.66203 -0.181143,0.10822 -0.453074,-0.0121 -0.607064,-0.26902 -0.154236,-0.25724 -0.132066,-0.55338 0.04913,-0.66203 0.04321,-0.0257 0.09343,-0.0395 0.14738,-0.0398 z m -2.066796,0.59097 c 0.0298,-5e-5 0.06015,0.0177 0.08305,0.0514 0.464052,0.6828 0.953898,1.37406 1.627002,2.02119 0.077,0.074 0.05611,0.15163 -0.05027,0.16023 -0.630105,0.051 -1.150696,-0.31703 -1.644546,-0.79069 -0.03536,-0.0339 -0.08961,-0.0314 -0.121647,0.006 -0.408696,0.4741 -0.877306,0.85298 -1.642209,0.76731 -0.08942,-0.0101 -0.104642,-0.0702 -0.03623,-0.12867 0.722326,-0.6177 1.222798,-1.32215 1.703034,-2.03521 0.0228,-0.0338 0.05204,-0.0514 0.08187,-0.0514 z m -0.146199,2.72267 c 0.411066,0.01 1.387429,0.29619 1.449211,0.36728 v 4.9e-4 4.9e-4 4.9e-4 4.8e-4 4.9e-4 l -8.96e-4,4.9e-4 c -0.319445,0.16679 -0.876617,0.56352 -1.37552,0.51349 -0.916922,-0.092 -1.300666,-0.53221 -1.300666,-0.53221 0,0 0.830058,-0.36494 1.228149,-0.35557 z m 0.113452,1.61648 c 0.332726,-0.002 0.665533,0.1917 0.665533,0.56845 v 3.9675 c 0.566191,-0.0498 0.832345,-0.3283 0.899471,-0.9521 0.04948,-0.45965 0.01874,-0.98313 -0.0061,-1.47378 -0.02788,-0.55579 0.718714,-0.48947 0.823441,0.0236 0.126069,0.61741 0.06848,1.19055 0.01398,1.76502 -0.156282,1.6493 -1.009796,1.55046 -1.731095,1.74864 v 1.49015 c -2.36e-4,0.0334 -0.02738,0.0604 -0.06084,0.0608 h -1.208257 c -0.03342,-2.4e-4 -0.0604,-0.0274 -0.06082,-0.0608 v -2.53935 c -0.857443,-0.004 -1.697896,-0.82472 -1.740461,-1.372 -0.112545,-0.61316 -0.0304,-1.25373 -0.0304,-1.55099 0,-0.56035 0.901419,-0.79374 0.908834,0.0233 l 0.0093,1.02931 c 0.0026,0.24898 0.359025,0.63643 0.852684,0.73688 v -2.85393 c 0,-0.40913 0.331642,-0.60812 0.664374,-0.61057 z m 1.658574,6.27876 c 0.06837,0.002 0.131238,0.0229 0.182479,0.0644 0.164334,0.13295 0.143622,0.43025 -0.04562,0.6632 -0.138436,0.17034 -0.334445,0.26444 -0.49828,0.23977 -0.05337,-0.008 -0.101257,-0.028 -0.140357,-0.0597 -0.163916,-0.13325 -0.143491,-0.43041 0.04562,-0.66319 0.129848,-0.15983 0.30578,-0.24815 0.456158,-0.24446 z m -3.229436,0.0702 c 0.096,-4.9e-4 0.200917,0.0215 0.302946,0.069 0.271651,0.12607 0.419571,0.38275 0.33102,0.5743 -0.0886,0.19194 -0.381613,0.24562 -0.653849,0.11931 -0.199108,-0.0925 -0.338182,-0.26086 -0.354409,-0.42576 -0.0054,-0.0537 0.0026,-0.10403 0.02352,-0.14971 0.05563,-0.11977 0.190908,-0.18563 0.350896,-0.18714 z"
     sodipodi:nodetypes="ccccccccccccccccccccsscsccscssccsccssccssccccssssssscscccscscsssccccssccccccccscccsccccccccsccscscssscccssccsscsssccccsscssscsscsssccccsssccscssccssscscsccccccccccscccsscscsscccccccssccsssscsscssssscsccss" />
  <g
     id="g193"
     style="display:inline"
     inkscape:label="tail assets"
     transform="matrix(-2.5945609,0,0,2.5945609,290.08283,-159.41102)">
    <path
       id="path191"
       style="display:inline;fill:#82a244;fill-opacity:1;fill-rule:evenodd;stroke:#ffffff;stroke-width:0.410869;stroke-linecap:square;stroke-linejoin:round;stroke-miterlimit:0.2;stroke-dasharray:none;stroke-opacity:1;paint-order:markers stroke fill"
       inkscape:label="fail"
       d="m 77.772335,82.965948 c -2.141602,0.02614 -4.207901,1.919396 -3.983696,7.306562 0.388724,2.162526 2.418408,8.878206 9.024763,10.86034 0.305409,0.0913 1.991166,0.41132 2.033686,0.32152 l 0.977982,-2.064896 -2.297521,-0.286976 c -0.132448,0.04059 -0.268719,0.03245 -0.408767,-0.0244 -3.346038,-1.652418 -5.050647,-3.232772 -6.502425,-6.936949 -2.438896,-7.673052 2.009925,-8.139206 3.224621,-5.605863 1.333422,3.206073 3.947597,1.205706 1.38905,-1.951318 -0.86066,-0.977239 -2.172733,-1.633705 -3.457693,-1.618017 z" />
    <path
       id="path193"
       style="display:inline;opacity:1;fill:none;fill-opacity:1;fill-rule:evenodd;stroke:#352c1b;stroke-width:0.07708433;stroke-linecap:round;stroke-linejoin:round;stroke-miterlimit:0.2;stroke-dasharray:none;stroke-opacity:1"
       d="m 75.835782,89.816354 c -0.163222,-0.647352 -0.556605,0.06152 -0.594898,-0.197019 -0.11309,-0.763524 0.132546,-1.234736 0.09922,-1.852084 -0.0065,-0.119897 -0.111156,-0.247928 -0.05788,-0.355533 0.04158,-0.08398 0.223242,-0.09922 0.248046,-0.132292 0.02479,-0.03307 0.196837,-0.708085 0.347266,-1.041797 0.115199,-0.255557 0.253384,-0.503424 0.42168,-0.727604 0.205976,-0.274373 0.397755,-0.604348 0.711067,-0.744141 0.241741,-0.10786 0.531287,-0.05923 0.79375,-0.02479 0.379524,0.0498 0.772642,0.131811 1.099675,0.330729 0.324718,0.19751 0.556555,0.521585 0.79375,0.818555 0.188921,0.23653 0.496094,0.760677 0.496094,0.760677 l 0.187092,0.487038 0.567439,0.430608 m 0.454848,-0.0046 c -0.0071,-0.01163 0.177907,0.21304 0.147624,0.271196 -0.02506,0.04812 -0.262994,-0.06386 -0.294419,-0.106185 -0.223733,-0.301361 -0.652074,-0.866338 -0.716699,-0.974776 -0.299022,-0.501743 -0.663866,-1.141801 -0.841893,-1.254589 -0.797969,-0.505546 -0.449728,-0.760185 -1.340517,-0.952637 -0.756691,-0.16348 -1.341942,-0.01397 -1.945844,0.294345 -0.385419,0.196774 -0.423879,1.02208 -0.683017,1.37814 -0.63926,0.878352 -0.681458,0.604619 -0.670087,2.574286 0.01873,3.244712 0.197318,-0.15944 0.764493,1.479229 0.06569,0.189776 0.385649,2.17384 0.45317,2.365908 0.228042,0.648677 0.145084,0.976047 1.51746,2.598417 0.358535,0.423846 -0.538458,0.152315 1.041465,1.404804 0.442579,0.350857 0.815218,0.881156 1.231179,1.21565 0.432398,0.347711 0.731165,0.225724 1.187255,0.458752 0.676805,0.345796 0.966905,0.873624 1.68414,1.149948 M 81.396582,87.556412 c -0.09102,-0.148127 -0.536212,-0.702904 -0.71908,-1.040043 -0.319192,-0.588468 -0.637778,-1.195166 -0.783011,-1.287177 -0.797969,-0.505546 -0.664215,-0.840445 -1.555004,-1.032897 -0.756691,-0.16348 -1.569956,0.06788 -2.173858,0.376196 -0.385419,0.196774 -0.418032,1.010387 -0.67717,1.366447 -0.63926,0.878352 -0.4951,0.916394 -0.670087,2.878305 -0.03332,0.373637 0.05232,1.016765 0.125904,1.43126 0.793215,4.468166 0.09683,-0.690448 0.597663,0.743705 0.06621,0.189594 0.397342,1.489797 0.464863,1.681865 0.228042,0.648677 0.221089,0.970201 1.593465,2.592571 0.358535,0.423846 -0.579384,0.19324 1.000539,1.445729 0.442579,0.350857 0.867837,0.933775 1.283798,1.268269 0.432398,0.347711 0.725318,0.278343 1.181408,0.511371 0.676805,0.345796 1.107222,0.861931 1.824457,1.138255 M 81.748032,87.42872 c -0.08268,-0.303573 -0.505864,-0.539662 -0.683707,-0.812836 -0.281817,-0.432882 -0.535733,-1.007003 -0.850286,-1.35065 -0.207143,-0.226303 -0.380129,-0.452304 -0.518097,-0.622868 -0.812766,-0.585594 -2.069093,-0.820633 -2.559267,-0.819831 -0.470836,0.163254 -1.873853,0.77129 -1.664752,1.177959 -0.726732,0.644412 -0.751416,1.920984 -0.926403,3.882895 -0.03332,0.373637 0.129429,0.977226 0.125904,1.398187 -0.0028,0.335573 0.124668,0.47973 0.156185,1.495568 0.401545,0.753324 1.104146,1.413186 1.098917,1.277381 -0.0056,-0.146372 0.313018,1.138688 0.363768,1.281893 0.06708,0.189288 0.153644,-0.182146 0.219846,0.01038 0.233911,0.680247 -0.352462,0.440755 0.705654,0.71314 0.564552,0.145329 -0.0156,1.693942 1.438755,1.88808 0.559814,0.07473 0.580233,0.978763 0.996194,1.313257 0.432398,0.347711 0.760397,0.219878 1.216487,0.452906 0.676805,0.345796 1.516479,1.224415 2.233714,1.500739 M 81.756128,87.439497 c 0.175137,-0.07402 0.490784,0.214061 0.01432,-0.400287 -0.256147,-0.330274 -0.499091,-0.770833 -0.660782,-0.957908 -0.947195,-1.095894 -0.679762,-1.64862 -1.468828,-2.093004 -1.360005,-0.765923 -3.447528,-0.645305 -4.525971,1.106199 -0.30822,0.500581 -0.393444,1.151966 -0.58167,1.928677 -0.150724,0.621963 -0.306105,1.414792 -0.192503,2.257946 0.08344,0.619295 0.05045,1.109127 0.221687,1.657401 -0.108756,0.287446 7.24e-4,0.588733 0.03706,0.913294 0.02234,0.199576 0.972199,1.198648 1.038401,1.391174 0.233911,0.680247 0.221885,1.756976 1.280002,2.029358 0.564552,0.145329 0.518466,1.994341 1.689933,2.260323 0.865886,0.1966 0.551,0.481809 0.966961,0.816303 0.432398,0.347711 0.813016,0.950693 1.269106,1.183721 0.676805,0.345796 1.341083,0.347437 1.877076,0.863466 M 81.042617,84.926278 c -0.04186,-0.130362 0.864492,1.689781 0.9185,1.902941 0.07843,0.309543 -0.687119,-0.926989 -0.824209,-1.101298 -0.206997,-0.263196 -0.392926,-0.918749 -0.553287,-1.120293 -2.236047,-2.81029 -6.719774,-1.576758 -6.506019,4.62672 0.02673,0.775778 0.06875,0.918007 0.266339,1.712782 0.03534,0.142155 0.01333,0.922072 0.06408,1.065277 0.06708,0.189288 0.485619,0.36833 0.551822,0.560855 0.233911,0.680247 0.486892,2.066366 0.967361,2.767656 0.119954,0.175084 0.240607,-0.09541 0.584339,0.19828 0.263832,0.225423 0.236193,0.553316 0.339849,0.694656 0.344755,0.470088 0.748336,1.160136 1.144015,1.56959 0.39247,0.406133 1.122025,0.599642 1.537986,0.934136 0.432398,0.347711 0.664188,0.934156 1.120278,1.167184 0.676805,0.345796 1.576727,0.165536 2.11272,0.681566"
       transform="translate(0.00292166)"
       inkscape:label="Cactus lines tail" />
    <path
       id="path192"
       style="display:inline;fill:#352a17;fill-opacity:1;fill-rule:evenodd;stroke:#ffffff;stroke-width:0.277142;stroke-linecap:square;stroke-linejoin:round;stroke-dasharray:none;stroke-opacity:1;paint-order:markers stroke fill"
       inkscape:label="tail thorns"
       d="m 75.856868,82.62028 0.13591,0.870748 c 0.309737,0.04242 0.440366,-0.119086 0.554488,-0.286804 z m 4.328418,0.04134 -0.852631,0.615968 c 0.04915,0.157218 0.09292,0.34126 0.818347,0.411846 z m -2.191598,2.489254 0.271302,0.912606 0.499195,-0.686264 c -0.229598,-0.147438 -0.511723,-0.207547 -0.770497,-0.226342 z m 4.059185,0.765845 c -0.359251,0.428179 0.184879,0.695013 0.219625,0.728637 l 0.677994,-0.625285 z m -5.589324,-0.02015 c -0.389563,0.091 -0.573794,0.509594 -0.410827,0.867648 l 0.940268,0.04771 z m -2.285131,0.301791 -1.566829,0.142622 1.292427,1.135848 c 0.365119,-0.316677 0.380767,-0.799872 0.286804,-1.222664 z m 5.507158,0.0046 -0.628903,0.740523 0.926559,-0.150378 c -0.0066,-0.09086 -0.04127,-0.245556 -0.07906,-0.336414 -0.05259,-0.109684 -0.150562,-0.174237 -0.218591,-0.253731 z m -3.790984,2.001428 c -0.369077,0.520973 -0.195718,0.947282 0.07803,1.177189 l 1.247986,-0.65474 z m -2.046386,2.385901 -1.333769,0.954464 1.579748,0.02222 c 0.329952,-0.657679 0.04143,-0.848779 -0.245979,-0.976684 z m 3.863846,0.661975 -1.34307,0.06046 c -0.06768,0.143329 -0.120087,0.63024 0.241846,0.820105 z m 0.631486,1.543575 -1.279508,0.408244 c -0.125076,0.44246 0.12823,0.729615 0.484725,0.963766 z m -3.51348,0.813387 -0.591179,1.098641 0.926559,-0.374137 c 0.167285,-0.516111 -0.094,-0.653889 -0.33538,-0.724504 z m 4.990393,2.207617 -0.896069,0.31471 c 0.171362,0.628048 0.471859,0.619657 0.717785,0.718819 z m -3.546037,0.422714 -0.515214,1.093473 1.011308,-0.410828 c 0.0285,-0.62535 -0.36639,-0.614869 -0.496094,-0.682645 z m 6.267318,1.788521 -0.534335,0.469739 c 0.121356,0.404218 0.574278,0.536897 0.886768,0.469739 z m -3.143478,1.440222 0.28267,1.12293 0.589629,-0.55914 c 0.274701,-0.260495 -0.578549,-0.755532 -0.872299,-0.563743 z"
       sodipodi:nodetypes="cccccccccccccccccccccccscccccccccccccccccccccccccccccccccccccccccscc"
       transform="translate(0.00292365)" />
  </g>
  <path
     id="path194"
     style="display:inline;fill:#352a17;fill-opacity:1;fill-rule:evenodd;stroke:#ffffff;stroke-width:1.06602;stroke-linecap:square;stroke-linejoin:round;stroke-dasharray:none;stroke-opacity:1;paint-order:markers stroke fill"
     inkscape:label="Black out line"
     d="m 64.5079,35.134313 c 0.192698,0.01168 0.37032,0.134268 0.449158,0.331172 3.150308,7.868081 2.782211,11.724832 2.336974,15.447087 l 3.809149,-5.196849 -3.111944,6.553716 6.3526,-3.199094 -5.340315,3.665684 1.610273,0.39687 -0.285584,0.494746 4.610928,1.197312 -5.019864,-0.489383 -0.851396,1.473513 c 2.581929,0.416235 5.049324,1.27538 7.402431,2.578314 -2.453616,2.990221 -5.126111,5.870819 -9.161528,8.070135 l 0.803122,4.795958 2.717757,3.172276 0.293631,1.55396 c 0.06219,0.329914 0.260866,0.618196 0.547039,0.793739 l 2.847807,1.747032 c 0.261616,0.159877 0.283727,0.531563 0.04292,0.721337 l -2.42815,1.922674 c -0.225028,0.178038 -0.35637,0.449144 -0.356644,0.736087 v 4.549255 c 4.51e-4,0.295837 0.170329,0.565258 0.437093,0.693183 l 2.446913,1.175859 c 0.40693,0.195944 0.439483,0.763014 0.05765,1.004238 l -3.786352,2.389266 -0.239995,0.896979 1.095415,0.29363 -0.717317,1.269716 c 0.486488,0.382916 0.926274,0.702567 1.399772,1.319323 l 2.075524,-0.357987 -1.037762,1.797981 c 0.624654,1.47756 0.344197,2.359068 -0.308381,3.634848 l 1.33005,2.3048 h -1.824796 l -1.559324,2.73519 c -0.118129,0.2073 -0.07247,0.50721 0.107259,0.66366 1.203005,1.04685 2.904335,2.311 1.485583,4.08267 -0.149138,0.18629 -0.481322,0.32181 -0.719997,0.32181 h -3.109263 c -0.362965,0 -0.858094,0.67037 -0.858094,0.67037 H 58.75732 c -0.343191,0 -0.823907,-0.19355 -1.035082,-0.4639 -0.33943,-0.43438 -0.574865,-0.89839 -0.70659,-1.39307 -0.02103,-0.0786 -0.100926,-0.14348 -0.182342,-0.14348 H 55.22169 c -0.09478,0 -0.164471,0.0781 -0.159568,0.17435 0.06772,1.29614 -0.493489,2.06771 -1.685356,2.31419 H 33.619087 c -0.272289,0 -0.679375,-0.12116 -0.913067,-0.26145 -0.761978,-0.45773 -1.518519,-0.91764 -0.896981,-2.01922 0.08061,-0.14296 0.02795,-0.27564 -0.131389,-0.31508 -6.136305,-1.51618 -5.145442,-10.64542 -0.935863,-17.763937 0.376673,-0.636964 0.721202,-1.736122 0.780332,-2.473733 0.608648,-7.592451 4.761601,-12.580982 12.458495,-14.965744 0.605646,-1.206448 1.452946,-2.247604 2.2458,-3.339875 l -1.194632,-0.543015 c -3.818241,0 -9.321494,-2.465951 -13.579384,-5.856511 3.4154,-3.415399 3.840752,-3.045664 5.577632,-4.376295 l -1.802003,-1.50167 2.339652,-2.27798 -5.342994,1.312622 5.663441,-2.38122 -5.877965,-2.896078 6.156847,2.059433 -3.668364,-5.513273 3.78501,3.853392 c -0.337047,-5.351399 -0.137667,-10.571728 1.992394,-15.327758 0.115277,-0.257381 0.420895,-0.366809 0.666367,-0.229281 1.569888,0.879613 3.636806,2.716243 7.071255,7.670581 4.953928,-1.959976 6.962559,-1.510154 9.353259,-1.372954 1.440183,-3.817844 3.732882,-6.525993 6.876841,-8.123765 0.08601,-0.04372 0.176536,-0.06159 0.264136,-0.0563 z"
     sodipodi:nodetypes="ccccccccccccccccccccccccccccccccccccccssscsccssccscscsscccccccccccccssccscc" />
  <path
     id="path195"
     style="display:inline;fill:#82a244;fill-opacity:1;fill-rule:evenodd;stroke-width:0.420319;stroke-linecap:square"
     inkscape:label="Green Body"
     d="m 64.368923,35.803361 c 0.151596,0.0073 0.29271,0.100384 0.356644,0.253412 1.913544,4.579781 2.302015,9.606406 1.901222,14.566197 l -2.184126,-3.004681 c 0,0 0.8766,-3.692766 0.604686,-4.184562 -0.132245,-0.239193 -5.671481,1.485581 -5.671481,1.485581 l 5.203555,-0.758881 -1.047146,5.293384 0.576528,-1.35016 2.184126,4.050486 -0.652955,0.955974 c 0.909112,0.957818 1.607101,1.177214 3.01004,1.24156 l -1.218762,1.944125 c 2.817004,-0.133128 6.628411,1.431525 7.886446,2.012505 0.236703,0.109308 0.275965,0.363874 0.09385,0.551058 -3.054051,3.139497 -6.761033,6.355089 -13.131566,9.798396 3.49475,-3.48901 3.167893,-5.138253 3.016748,-5.172717 -5.71e-4,-8.8e-5 -0.0034,2.9e-5 -0.004,0 -5.72e-4,2.9e-5 -0.0034,-8.8e-5 -0.004,0 h -0.0011 c -5.71e-4,2.05e-4 -0.0029,0.0011 -0.004,0.0013 h -0.0011 l -0.0011,0.0013 c -0.0065,0.0052 -0.01452,0.01582 -0.01869,0.0295 -0.856231,2.765961 -3.3591,5.085563 -6.813828,7.150364 3.681796,-0.99235 8.218229,-3.543771 8.236392,-3.889595 l 0.997534,4.664561 c 1.345897,1.54508 2.882024,3.015555 3.239319,4.826797 l -1.928038,-0.974745 1.389046,1.029716 -1.48156,-0.538992 0.815192,0.646254 -0.765586,-0.197083 4.39373,2.579655 c 0.262152,0.153728 0.254706,0.535253 -0.01349,0.678431 l -2.802225,1.500331 0.627483,2.889373 c 0.04618,0.213478 0.06198,0.432391 0.04692,0.650274 l -0.14615,2.159992 c -0.014,0.203831 0.079,0.400284 0.245368,0.518881 l 2.497867,1.776528 -3.668366,2.617196 c 0.129445,1.527377 -0.687873,3.471336 -2.703001,5.942321 l 1.844907,-1.158429 1.008261,3.839972 -2.642668,0.0669 c -0.443306,0.0104 -0.855557,0.23014 -1.112846,0.59131 l -0.313741,0.44244 c -0.256941,0.36005 -0.409165,0.78421 -0.439774,1.22547 l -0.298997,4.3669 -1.080665,-0.0207 -2.542113,-13.363517 1.598208,-4.496965 1.973621,-1.981667 -2.456303,1.952172 -1.244239,2.703001 -0.579214,-2.896077 -1.351504,5.406015 4.303896,12.592588 c -2.145618,-0.0867 -4.245803,-0.23689 -6.395508,-0.36469 l 2.520659,0.39686 c 1.181917,0.1126 2.365698,0.21067 3.545014,0.34593 1.337954,0.95013 0.95166,2.12671 0.737428,3.03818 l -0.02286,-0.001 c -0.176302,-0.013 -0.409387,-0.13336 -0.508154,-0.27754 -0.542592,-0.79269 -0.868004,-1.79406 -1.866361,-1.93072 0.69552,0.48529 1.352429,1.17578 1.452059,2.20022 l -1.348818,0.005 c -0.203025,0.001 -0.461188,-0.1318 -0.573853,-0.299 -0.86717,-1.28669 -1.370501,-2.22885 -3.078425,-2.45227 1.416734,0.74435 2.093269,1.14817 2.578312,2.63864 0.05629,0.1728 -0.04841,0.34624 -0.226583,0.3781 -0.639147,0.11417 -1.367939,0.18111 -2.029935,0.25064 -0.286961,0.0301 -0.656847,-0.13103 -0.816529,-0.37006 -0.443249,-0.66361 -0.809072,-1.3301 -1.181226,-2.02321 -0.267959,-0.49907 -0.4154,-1.35623 -0.328492,-1.91599 l 0.119323,-0.77094 c 0.09066,-0.58349 -0.02606,-1.18032 -0.329829,-1.6867 l -2.229709,-3.71261 C 53.906503,99.923171 53.530536,99.719786 53.13111,99.73473 l -2.674849,0.09654 2.319548,-4.057191 c 0.105962,-0.185926 0.115923,-0.41148 0.0268,-0.606035 L 51.25133,91.777225 c -0.06359,-0.139978 -0.156945,-0.264439 -0.273514,-0.364691 l -3.08513,-2.638645 3.185685,-2.275297 c 0,0 -1.143689,-1.614959 -1.516421,-2.260547 -0.23792,-0.41208 -0.938829,-0.181337 -0.667705,0.288264 0.355187,0.615201 0.941225,1.866361 0.941225,1.866361 l -2.871943,2.445576 3.258088,2.717751 c 0.32596,0.272097 0.582031,0.618282 0.746812,1.00961 l 1.065919,2.5287 c 0.07628,0.180503 0.06235,0.3865 -0.03755,0.555086 l -3.081105,5.202217 h 4.161769 l 1.236198,2.87999 c 0.126639,0.29554 -0.08482,0.62568 -0.406255,0.63419 l -2.172062,0.0563 c -0.153779,0.003 -0.210003,0.20393 -0.08043,0.28693 l 0.761556,0.48402 c 0.312879,0.199 0.433471,0.63398 0.168936,0.88088 -0.24355,0.22728 -0.448153,0.46862 -0.09787,0.78435 0.06725,0.0607 0.09561,0.10768 0.08178,0.13544 -0.014,0.0234 -0.05931,0.034 -0.135411,0.0283 -2.299815,-0.17902 -6.888771,-1.33227 -9.015383,-0.30973 -0.149784,0.0721 -0.12856,0.1523 0.03754,0.16086 3.042621,0.15541 6.085353,0.32328 9.126665,0.5028 0.178685,0.0104 0.44378,0.0983 0.583237,0.21042 1.395201,1.12279 1.688134,2.88595 -0.04561,3.92715 l -0.750835,-0.0428 c 0.543106,-1.25592 0.144183,-2.64076 -1.394407,-2.89607 0.762392,0.44761 1.485063,1.00114 1.138318,2.53273 -0.03818,0.16865 -0.218981,0.30432 -0.391506,0.3057 -5.93259,0.0467 -11.870824,0.0887 -17.800148,-0.1811 -0.275856,-0.013 -0.719913,-0.0802 -0.968041,-0.19978 -1.42308,-0.6864 -0.456313,-2.07537 0.340557,-3.39888 0.125577,-0.2086 0.418768,-0.35203 0.659662,-0.32178 2.891399,0.36308 4.056627,0.0371 4.750371,-0.43308 -15.041002,0.64449 -9.414333,-12.240397 -3.766241,-18.576452 l -2.820994,1.425244 C 32.522771,83.77964 34.419685,78.178398 44.328436,74.436896 l 2.334292,-3.55574 c 4.148233,1.591719 6.34843,0.645065 6.778963,0.579218 -1.102124,-0.169581 -2.446673,-0.314093 -3.546351,-0.482682 -0.182394,-0.02797 -1.422564,-1.209379 -1.422564,-1.209379 0,0 0.708882,0.952338 0.678432,1.060555 v 0.0013 h -0.0011 v 0.0013 l -0.0011,0.0013 h -0.0011 l -0.0011,0.0013 h -0.0011 -0.0011 l -0.0011,0.0013 c -0.0023,2.36e-4 -0.0051,-8e-4 -0.0081,-0.0013 -3.851408,-0.722087 -7.469814,-2.334444 -9.666997,-8.658735 0.550613,3.225014 2.135972,5.930502 5.093611,7.675943 -3.77859,-0.825042 -7.707619,-2.350148 -11.970641,-5.427358 1.90311,-1.446062 4.032005,-2.706791 6.15148,-3.975401 L 37.42462,58.458863 c -0.05397,-0.0823 -0.04743,-0.190285 0.01609,-0.265473 l 2.15731,-2.550158 c 0.317315,-0.527684 0.144828,-0.897912 -0.349941,-1.634407 0,0 0.27563,-0.238673 0.25341,-0.366033 -0.880212,-5.044506 -0.916536,-10.173966 0.890275,-14.949657 0.205982,-0.54442 0.781313,-0.708526 1.237538,-0.347262 2.234801,1.769638 4.172227,4.119068 5.613831,6.492041 L 44.947722,46.12506 41.8693,45.406403 c -0.351883,-0.08212 -0.670482,0.227906 -0.597987,0.581897 l 0.603349,2.959095 c -0.574316,0.631285 -0.72896,1.172323 -0.973404,1.732282 0.343237,-0.436948 0.62483,-0.900018 1.061894,-1.297873 l 0.156868,0.770948 c 1.29e-4,7.43e-4 0.0011,0.0031 0.0013,0.0042 v 0.0013 l 0.0014,0.0013 0.0013,0.0013 0.0014,0.0013 0.0013,0.0013 0.0013,0.0013 0.0013,0.0013 c 8.57e-4,6.8e-5 0.0019,6.8e-5 0.0026,0 h 0.0013 0.0013 0.0014 c 8.57e-4,6.8e-5 0.0019,6.8e-5 0.0026,0 h 0.0014 0.0013 0.0014 l 0.0013,-0.0013 h 0.0014 l 0.0014,-0.0013 v -0.0013 l 0.0013,-0.0013 0.0013,-0.0013 0.0013,-0.0013 v -0.0013 l 0.0014,-0.0013 c 1.77e-4,-0.0014 1.77e-4,-0.0042 0,-0.0054 v -0.0013 l -0.265473,-3.877527 c -0.0088,-0.126173 0.101526,-0.22801 0.226583,-0.209148 l 2.830378,0.435752 c 0.1324,0.02024 0.340375,-0.0062 0.46391,-0.05765 4.11761,-1.717267 8.214663,-3.46376 14.363735,-2.201556 l -1.478873,-0.46659 c -0.08394,-0.02649 -0.125553,-0.114705 -0.09253,-0.195759 1.32538,-3.251657 2.98327,-6.164236 5.96378,-7.725555 0.06678,-0.03497 0.13756,-0.04888 0.206471,-0.04559 z m 5.658074,59.256959 0.112631,0.348603 -0.367371,-0.0029 z m -0.311061,0.646251 0.05629,0.407599 -0.36469,-0.0029 z m -3.248703,7.453379 -0.425024,3.16155 0.273519,0.0155 0.242693,0.53767 -0.864804,-0.0524 z m 1.448041,3.08646 0.01612,0.55376 0.423687,0.3486 0.273519,0.78167 -0.416983,-0.27352 -0.0684,-0.36334 -0.325806,-0.28156 0.166261,0.53896 -0.780336,-0.36469 z m -3.376073,1.00158 c 1.063942,0.0612 -0.617202,-0.0327 2.633284,0.16761 0,0 1.516781,0.48002 1.031059,3.1602 l -0.85542,-0.0618 c -0.07107,-0.71068 -0.889184,-2.43751 -2.087589,-2.54882 0.850814,0.67578 1.417198,1.42545 1.343457,2.4228 l -1.759096,-0.13128 c 0.287178,-1.55513 0.21042,-2.50225 -0.305695,-3.00868 z m 5.688912,0.1715 c 0.593479,0.40156 0.99674,0.96775 0.481339,3.25542 h -0.689159 c 0.718306,-0.76485 0.67646,-2.01592 0.20782,-3.25542 z m 2.032616,0.49877 c 0.123084,0.19538 0.887486,0.38777 0.06167,2.70032 -0.09177,0.0317 -0.194641,0.0576 -0.286926,0.0563 0.432996,-0.84136 0.583934,-1.74064 0.225262,-2.75664 z m -3.67775,0.76961 0.43307,0.68379 -0.439774,0.22651 z" />
  <path
     id="path196"
     style="display:inline;fill:#352a17;fill-opacity:1;fill-rule:evenodd;stroke-width:0.420319;stroke-linecap:square"
     d="m 62.347034,47.415828 -0.804465,1.222787 0.772289,1.083346 -1.630383,-1.051167 z m 2.420103,7.01226 -0.568487,1.775188 1.949486,-1.562003 -1.858314,1.850269 2.32088,-0.500109 -3.056971,0.985471 z m 3.441773,4.118866 a 0.01479974,0.01479974 0 0 0 0.0011,0.0013 0.01479974,0.01479974 0 0 1 0.0011,0 0.01479974,0.01479974 0 0 1 0.0011,0.0013 0.01479974,0.01479974 0 0 1 0.0011,0 0.01479974,0.01479974 0 0 0 0.0011,0.0013 0.01479974,0.01479974 0 0 1 0.0011,0.0013 0.01479974,0.01479974 0 0 1 0.0011,0.0013 0.01479974,0.01479974 0 0 1 0,0.0013 0.01479974,0.01479974 0 0 0 0,0.0013 0.01479974,0.01479974 0 0 1 0,0.0013 0.01479974,0.01479974 0 0 1 0.0011,0.0013 0.01479974,0.01479974 0 0 1 0,0.0013 0.01479974,0.01479974 0 0 1 0,0.0042 0.01479974,0.01479974 0 0 1 0,0.0013 0.01479974,0.01479974 0 0 1 -0.0011,0.0013 0.01479974,0.01479974 0 0 1 0,0.0013 0.01479974,0.01479974 0 0 0 -0.0011,0.0013 0.01479974,0.01479974 0 0 0 -0.0011,0.0013 0.01479974,0.01479974 0 0 0 -0.0011,0.0013 l -1.603569,1.351502 a 0.04859512,0.04859512 0 0 0 0.03886,0.08448 l 2.652058,-0.429048 a 0.01625111,0.01625111 0 0 1 0.0011,0 0.01625111,0.01625111 0 0 1 0.0023,0 0.01625111,0.01625111 0 0 1 0.0011,0 0.01625111,0.01625111 0 0 1 0.0011,0 0.01625111,0.01625111 0 0 1 0.0011,0.0013 0.01625111,0.01625111 0 0 1 0.0029,0 0.01625111,0.01625111 0 0 0 0.0011,0.0013 0.01625111,0.01625111 0 0 0 0.0011,0.0013 0.01625111,0.01625111 0 0 1 0.0011,0.0013 0.01625111,0.01625111 0 0 1 0,0.0013 0.01625111,0.01625111 0 0 1 0.0011,0.0013 0.01625111,0.01625111 0 0 1 0.0011,0.0013 0.01625111,0.01625111 0 0 1 0.0011,0.0013 0.01625111,0.01625111 0 0 1 0,0.0013 0.01625111,0.01625111 0 0 1 0,0.0013 0.01625111,0.01625111 0 0 1 0,0.0013 0.01625111,0.01625111 0 0 1 0,0.0013 0.01625111,0.01625111 0 0 1 0,0.0013 0.01625111,0.01625111 0 0 1 0,0.0013 0.01625111,0.01625111 0 0 1 -0.0011,0.0042 0.01625111,0.01625111 0 0 1 -0.0011,0.0013 0.01625111,0.01625111 0 0 1 0,0.0013 0.01625111,0.01625111 0 0 1 -0.0011,0.0013 0.01625111,0.01625111 0 0 1 -0.0011,0.0013 0.01625111,0.01625111 0 0 1 -0.0011,0 0.01625111,0.01625111 0 0 1 -0.0011,0.0013 0.01625111,0.01625111 0 0 1 -0.0011,0.0013 0.01625111,0.01625111 0 0 1 -0.0011,0 0.01625111,0.01625111 0 0 1 -0.0011,0 l -3.48736,1.098097 a 0.09856366,0.09856366 0 0 0 -0.02949,0.172953 l 2.507252,1.913286 a 0.02102733,0.02102733 0 0 1 0.004,0.02815 0.02102733,0.02102733 0 0 1 -0.0011,0.0026 0.02102733,0.02102733 0 0 1 -0.02543,0.0042 l -3.776968,-2.118425 a 0.17374187,0.17374187 0 0 1 0.0067,-0.307038 l 3.692501,-1.855635 a 0.01479974,0.01479974 0 0 1 0.0011,0 0.01479974,0.01479974 0 0 1 0.0011,0 0.01479974,0.01479974 0 0 1 0.0011,0 0.01479974,0.01479974 0 0 1 0.0011,-0.0013 0.01479974,0.01479974 0 0 1 0.0011,0 0.01479974,0.01479974 0 0 1 0.0011,0 0.01479974,0.01479974 0 0 1 0.0011,0 0.01479974,0.01479974 0 0 1 0.0011,0 z m -1.583458,3.648253 c -0.241035,0.376601 -0.498467,0.744737 -1.076647,0.962678 0.661127,0.666737 0.671929,1.085702 0.65967,1.494965 C 65.7378,64.127737 65.20878,63.548434 64.661216,63.157885 Z m -8.433484,4.846907 c 0.816323,0.08643 1.633012,0.169528 2.449598,0.253411 -0.521521,0.174951 -1.069034,0.284302 -1.661221,0.277543 0.37456,0.875187 0.333109,1.221132 0.304357,1.584796 -0.364633,-0.705046 -0.728792,-1.410338 -1.092734,-2.115745 z m -9.170913,8.897393 c 0.272045,-0.0018 -0.144955,0.502348 -1.323346,1.393067 L 46.2309,78.441395 c 0.889164,0.665915 1.702972,1.387512 2.475076,2.141221 1.16863,1.14079 0.973978,1.359335 -0.348605,0.400891 l -3.445794,-2.496525 c 0.811983,-0.592663 1.625072,-1.159686 2.441554,-1.689378 0.903486,-0.586135 1.469408,-0.856789 1.667924,-0.858097 z m 15.117256,3.010043 c 0.848162,0.910616 1.547494,1.290727 2.149265,1.457425 0.664962,0.184214 0.880554,0.578883 0.437094,1.110161 l -1.363574,1.634407 1.501677,0.214518 c -0.950237,1.641416 -2.418887,2.382415 -3.721996,3.410936 l 2.906804,-3.067697 -1.13698,-0.407594 1.480216,-2.209601 c -1.167835,-0.504621 -2.162626,-0.711984 -2.252506,-2.14256 z m -23.080127,7.918624 1.107483,4.610928 c 1.767106,0.34394 2.478146,0.901797 3.390824,1.418541 l 3.654953,-1.221442 -0.933178,3.397527 c 0.482249,0.8099 1.173619,1.471987 0.698544,2.814289 -0.09607,-0.848213 -0.09151,-1.729138 -0.902342,-2.343677 l -0.530948,0.955975 0.27218,-3.254069 -4.511713,0.850053 1.637087,-0.933184 c -0.803792,-0.676146 -1.668928,-1.211103 -2.684234,-1.40379 l -0.09117,1.532509 c -0.143323,-0.531031 -0.209485,-1.079356 -0.467931,-1.584801 l -0.319105,-0.03755 0.250738,-0.174302 -0.843349,-3.376073 -3.034176,3.397522 z m 9.503427,15.502066 -0.674415,2.47238 -1.806023,0.69853 z"
     inkscape:label="pointy pricklies" />
  <path
     id="path197"
     style="display:inline;fill:#352a17;fill-opacity:1;fill-rule:evenodd;stroke-width:0.420319;stroke-linecap:square"
     inkscape:label="Cactus lines"
     d="m 52.267078,43.58657 c 0.0017,2.46e-4 0.0023,10e-4 0.004,0.0013 0.05143,0.0099 0.0652,0.08751 0.02949,0.244019 -1.941977,2.24807 -2.22596,5.928317 -2.365132,6.164889 v 0.0013 h -0.0011 l -0.0011,0.0013 h -0.0011 l -0.0011,0.0013 h -0.0011 l -0.0011,-0.0013 h -0.0011 -0.0011 c -5.71e-4,-5.65e-4 -0.004,-0.0026 -0.004,-0.0026 -0.01869,-0.01427 -0.08386,-0.06043 -0.08982,-0.163587 -0.129181,-2.249148 2.004104,-6.260121 2.430831,-6.246678 0.0017,5.2e-5 0.004,-2.47e-4 0.0057,0 z m 7.657172,2.063454 c 0.393705,0.01764 1.916738,2.918967 0.828604,5.133835 -0.04555,0.09275 -0.07109,0.149291 -0.08983,0.163587 l -0.0011,0.0013 v 0.0013 h -0.0011 -0.0011 -0.0011 -0.0011 l -0.0011,0.0013 h -0.0011 l -0.0011,-0.0013 h -0.0011 l -0.0011,-0.0013 h -0.0011 v -0.0013 c -0.139171,-0.236572 1.138849,-2.739618 -0.803121,-4.987688 -0.02829,-0.217139 0.0062,-0.312998 0.07911,-0.309721 z M 41.551592,61.170853 c -0.883342,1.495731 -1.924134,2.832179 -2.908145,4.226128 L 40.2202,62.559899 a 0.06000503,0.06000503 0 0 0 -0.09252,-0.07374 l -2.770044,2.428146 c 0.835023,-0.902043 1.37033,-1.822152 2.398648,-2.712391 0.276528,-0.239399 0.236079,-0.31693 -0.111281,-0.199781 l -3.743448,1.26167 c 1.651542,-0.738111 2.079457,-1.689396 5.650033,-2.092952 z m 8.041974,2.888033 0.547039,2.477756 C 49.723399,65.732735 49.41016,64.980603 49.593566,64.058886 Z m 9.996831,0.825918 c -0.129313,0.770193 -0.42691,1.839396 -0.701223,2.583677 l -0.0011,0.0013 v 0.0013 c -0.433488,0.917345 -1.387126,2.16281 -2.306136,3.29697 0.663436,-1.117085 1.536235,-2.279101 2.062111,-3.396186 l 0.0011,-0.0013 v -0.0026 c 0.327801,-0.738233 0.713465,-1.745036 0.945248,-2.483205 z m -9.263427,2.614513 c 0.01943,0.0042 0.04423,0.03168 0.07107,0.08448 0.519098,1.02164 1.06732,1.970416 1.627704,2.968479 -1.643066,-1.725194 -1.831695,-2.9919 -1.710834,-3.051608 l 0.0011,-0.0013 h 0.0011 0.0011 c 0.0011,2.6e-5 0.0023,3.7e-5 0.0029,0 h 0.0011 0.0011 0.0011 z" />
  <path
     id="path198"
     style="display:inline;fill:#000000;fill-opacity:1;fill-rule:evenodd;stroke-width:0.420319;stroke-linecap:square"
     d="m 61.120225,56.33199 -4.012945,3.496747 c 0.08053,0.297842 0.08546,0.395584 0.059,0.678433 l 3.626796,1.89988 -3.988806,-0.939885 c -1.720949,1.754938 -3.549311,3.211027 -6.699859,0.994856 -0.112609,-0.07919 -0.268131,-0.05472 -0.351284,0.05498 -1.239341,1.634676 -2.663096,2.623422 -4.834842,0.927817 l -2.166694,1.759099 1.738986,-2.475073 c -0.04154,-0.470223 -0.01531,-0.810188 0.163587,-1.29251 l -2.731162,-3.078423 3.4163,2.287365 0.450501,-0.496088 -0.17809,0.711455 1.180994,0.758037 -1.256307,1.32737 c 1.928109,1.440923 2.960618,-0.356249 4.045123,-1.716193 0.124564,-0.156192 0.354981,-0.176067 0.514858,-0.0563 2.289333,1.714844 4.30133,1.740008 6.009363,-0.0858 l -1.773847,-1.001557 1.508374,-0.867484 -0.812511,-1.280441 1.473513,0.843349 z m -4.93039,3.607296 -0.640536,0.177727 c 0,0 0.45225,0.268646 0.622117,0.140781 0.194127,-0.146126 0.0184,-0.318508 0.0184,-0.318508 z m -10.971268,1.811738 c -0.104923,0.126536 -0.309489,0.271307 -0.125524,0.667466 l 0.405984,-0.447731 z"
     sodipodi:nodetypes="cccccscccccccccccscccccccccccccccc"
     inkscape:label="Mouth" />
  <path
     id="ellipse198"
     style="display:inline;fill:#352a17;fill-rule:evenodd;stroke-width:0.420319;stroke-linecap:square"
     inkscape:label="eye brow left"
     transform="matrix(-0.89075417,0.45448543,0.45448543,0.89075417,0,0)"
     d="m -25.278912,67.867821 a 0.5255844,0.27351838 0 0 1 -0.525585,0.273518 0.5255844,0.27351838 0 0 1 -0.525584,-0.273518 0.5255844,0.27351838 0 0 1 0.525584,-0.273519 0.5255844,0.27351838 0 0 1 0.525585,0.273519 z" />
  <path
     id="ellipse199"
     style="display:inline;fill-rule:evenodd;stroke-width:0.420319;stroke-linecap:square"
     inkscape:label="eye drow right"
     inkscape:transform-center-x="-0.036433993"
     inkscape:transform-center-y="0.031567693"
     transform="rotate(17.088891)"
     d="m 60.166328,33.691879 a 0.5255844,0.27351841 0 0 1 -0.525585,0.273519 0.5255844,0.27351841 0 0 1 -0.525584,-0.273519 0.5255844,0.27351841 0 0 1 0.525584,-0.273518 0.5255844,0.27351841 0 0 1 0.525585,0.273518 z" />
  <path
     id="ellipse200"
     style="display:inline;fill-rule:evenodd;stroke-width:0.434441;stroke-linecap:square"
     inkscape:label="Eye_L"
     transform="matrix(-0.96974488,0.24412059,0.24412059,0.96974488,0,0)"
     d="m -38.877683,64.672813 a 1.8449084,2.7459102 0 0 1 -1.844908,2.745911 1.8449084,2.7459102 0 0 1 -1.844909,-2.745911 1.8449084,2.7459102 0 0 1 1.844909,-2.74591 1.8449084,2.7459102 0 0 1 1.844908,2.74591 z" />
  <path
     id="ellipse201"
     style="display:inline;fill-rule:evenodd;stroke-width:0.402992;stroke-linecap:square"
     inkscape:label="Eye_R"
     transform="scale(-1,1)"
     d="m -43.844337,54.137131 a 1.5874794,2.7459102 0 0 1 -1.587479,2.74591 1.5874794,2.7459102 0 0 1 -1.587479,-2.74591 1.5874794,2.7459102 0 0 1 1.587479,-2.74591 1.5874794,2.7459102 0 0 1 1.587479,2.74591 z" />
  <path
     id="path3"
     style="display:inline;fill:#ffffff;fill-opacity:1;fill-rule:evenodd;stroke:none;stroke-width:0.449503;stroke-linecap:square;stroke-dasharray:none;stroke-opacity:1"
     d="m 70.630545,15.7999 c 0.05722,0.03598 0.114369,0.08013 0.171246,0.128566 0.140184,0.120756 0.257323,0.349195 0.138435,0.502359 -0.713404,0.919221 -1.942229,0.801037 -3.011003,0.752298 0.861467,-0.962779 1.841153,-1.91961 2.701293,-1.383183 z m -3.201779,-2.083229 c 0.838957,0.568973 0.361022,1.852409 -0.170169,3.030069 -0.477544,-0.957405 -1.083442,-2.032923 -0.532096,-3.057625 0.09184,-0.170744 0.348131,-0.156155 0.515372,-0.07695 0.06793,0.03136 0.131082,0.06644 0.186896,0.104497 z m 4.111427,4.368657 c 0.04093,0.02569 0.08079,0.05262 0.117581,0.08222 0.233981,0.184354 0.239704,0.582038 0.185163,0.874876 -0.196136,1.053129 -0.979056,2.158225 -1.93398,2.64373 -0.862428,0.438486 -2.610749,-0.123155 -2.610749,-0.123155 1.3e-5,-2.4e-5 0.01378,1.062849 -0.226301,1.565129 -0.166087,0.34739 -0.233606,0.530352 -0.616889,0.566865 -0.593953,0.0565 -1.229522,-0.444066 -1.499926,-0.975921 -0.17971,-0.353476 -0.01669,-0.960295 -0.01669,-0.960295 l 2.317816,-3.562315 c 0,0 3.015549,-0.904471 4.283707,-0.110718 z m -6.569427,-4.274383 c 1.239472,0.837867 1.634313,3.961246 1.634313,3.961246 l -2.317835,3.562345 c 0,0 -0.488746,0.394872 -0.884708,0.373777 -0.595794,-0.03174 -1.310971,-0.409983 -1.499929,-0.975926 -0.121943,-0.365231 0.01797,-0.501076 0.268341,-0.793652 0.361876,-0.42304 1.339249,-0.841008 1.339249,-0.841008 0,0 -1.221822,-1.370843 -1.170339,-2.336988 0.057,-1.069721 0.75012,-2.233223 1.633508,-2.839225 0.245639,-0.168484 0.611553,-0.324437 0.874877,-0.185163 0.04201,0.02162 0.08243,0.04791 0.122796,0.07418 z m 2.454336,11.111658 c 0.278707,0.178496 0.450262,0.579914 0.434144,1.018077 -0.02228,0.599081 -0.382738,1.071809 -0.804693,1.05537 -0.421172,-0.01617 -0.744389,-0.513601 -0.722339,-1.111493 0.02199,-0.598689 0.38178,-1.071618 0.8035,-1.056153 0.100343,0.0039 0.198734,0.03597 0.289367,0.09423 z m -7.038144,-4.579355 c 0.09006,0.05922 0.159104,0.136202 0.203393,0.226388 0.184978,0.379307 -0.101611,0.899851 -0.640067,1.162503 -0.537734,0.262434 -1.123434,0.16842 -1.308825,-0.210098 -0.186047,-0.379079 0.100177,-0.900184 0.638852,-1.163265 0.394047,-0.192251 0.830784,-0.198403 1.106668,-0.01556 z"
     sodipodi:nodetypes="scscssscscssccsscssscccccccssscsscccsccccsssccccss"
     inkscape:label="mariposa" />
  <path
     style="display:inline;fill:#ffffff;fill-opacity:1;fill-rule:evenodd;stroke:none;stroke-width:0.612283;stroke-linecap:square;stroke-dasharray:none;stroke-opacity:1"
     d="m 455.31534,142.742 c 0,-0.93571 1.50531,-1.32537 1.51769,0.0391 l 0.0156,1.71875 c 0.004,0.41575 0.59902,1.06245 1.42334,1.23019 v -4.76395 c 0,-1.36637 2.22241,-1.32854 2.22241,-0.0703 v 6.62419 c 0.94542,-0.0833 1.38813,-0.54822 1.50022,-1.58984 0.0826,-0.76755 0.033,-1.64164 -0.008,-2.46093 -0.0465,-0.92808 1.20013,-0.81729 1.375,0.0391 0.21052,1.03098 0.11429,1.98893 0.0234,2.94815 -0.26096,2.75404 -1.68617,2.58812 -2.89062,2.91904 v 2.48778 a 0.10286,0.10286 135 0 1 -0.10286,0.10286 h -2.01669 a 0.10286,0.10286 45 0 1 -0.10286,-0.10286 v -4.24011 c -1.43177,-0.007 -2.83477,-1.37739 -2.90585,-2.29125 -0.18792,-1.02384 -0.0508,-2.09356 -0.0508,-2.58992 0,-1e-5 2e-5,0 2e-5,0 z"
     id="path5"
     sodipodi:nodetypes="ssscsscsssscccccss"
     inkscape:label="cactus"
     transform="matrix(1.1962249,0,0,1.1962249,-454.82006,-63.014616)" />
  <g
     id="g291"
     inkscape:label="black wordmark short"
     transform="matrix(0,-0.19706046,0.19706046,0,-63.820793,156.52292)"
     style="display:inline;fill:#ffffff;fill-opacity:1;stroke:none;stroke-opacity:1"
     inkscape:transform-center-x="-214.32835"
     inkscape:transform-center-y="41.527705">
    <path
       style="font-size:147.929px;font-family:Klarissa;-inkscape-font-specification:Klarissa;display:inline;fill:#ffffff;fill-opacity:1;fill-rule:evenodd;stroke:none;stroke-width:1.12827;stroke-opacity:1"
       d="m 543.08062,370.08165 c 9.07898,11.16256 18.00727,23.53979 33.28669,25.72892 2.70331,-2.097 5.52134,-4.46669 5.30877,-8.05508 v 0 c -0.25481,-4.30155 -6.75062,-3.88576 -7.21347,-1.40812 -0.0212,0.10337 -0.0264,0.20805 -0.0212,0.31554 v 0.002 c 0.0378,0.74058 0.9058,1.42767 0.95618,1.46695 -0.0431,-0.16751 -0.10876,-0.49466 -0.0239,-0.85486 0.20672,-2.02869 6.45475,-2.05062 5.06208,2.30652 -0.96824,1.16573 -2.36314,1.55623 -3.77508,1.91063 -5.15662,1.09349 -10.39974,-1.00696 -9.68036,-4.14218 1.23814,-5.38821 25.07488,-11.58012 20.53289,9.46433 -0.14992,0.69464 -0.42477,1.345 -0.90642,1.9296 -0.48151,0.58462 -1.07624,1.08123 -1.73261,1.50693 -0.65638,0.42572 -1.37481,0.78024 -2.10551,1.0843 -0.73071,0.30409 -1.47372,0.55669 -2.17817,0.77644 -4.90921,1.74447 -10.04504,2.99414 -14.91834,4.85741 -6.72791,1.92764 -12.06068,6.79352 -12.21815,13.83024 0.0609,8.47956 7.15266,13.44565 16.14227,13.61031 10.21212,0.26986 15.90663,-3.21504 17.96461,-4.80989 v 4.82682 h 21.77033 c -1.80705,-1.41335 -3.09604,-3.51015 -3.30457,-5.81744 -2.67818,-11.88063 3.50456,-29.01776 -0.87771,-40.24444 -1.94636,-5.05635 -6.46531,-8.74593 -14.76725,-10.47593 -5.08865,-1.06036 -10.45921,-1.10115 -15.59532,-1.26598 -12.31004,1.18901 -20.5475,-2.22359 -31.70576,-6.54302 z m 44.48154,34.95609 c 0.003,4.84403 -0.004,9.68806 -0.0239,14.53205 -2.26023,2.63157 -5.28208,4.77097 -8.707,5.59557 -3.59307,0.93044 -8.49556,-0.94333 -8.94604,-5.01612 -0.34175,-4.33722 3.67165,-7.28955 6.98203,-9.28454 3.65135,-1.77248 7.09913,-3.82805 10.69585,-5.82696 z"
       id="path283"
       sodipodi:nodetypes="cccccsscccccsssscscccccccsccccccccc"
       inkscape:label="a" />
    <path
       id="path284"
       style="font-size:147.929px;font-family:Klarissa;-inkscape-font-specification:Klarissa;display:inline;fill:#ffffff;fill-opacity:1;fill-rule:evenodd;stroke:none;stroke-width:1.12827;stroke-opacity:1"
       d="m 539.43412,373.87243 c 0,0 -13.21552,8.35442 -22.36236,7.54139 2.957,2.1427 3.90318,5.40008 3.91326,6.73431 0,0 0.1088,17.48089 0.0152,22.49607 -5.76751,11.22015 -4.53017,5.06207 -6.54797,3.03846 -2.99647,-3.00515 -6.92844,-3.22215 -10.19207,-1.69264 -0.92898,0.43539 -1.22721,0.76884 -1.16984,1.05597 0.10544,0.5284 1.42428,0.91578 2.26205,1.57358 3.04595,2.82107 2.65559,7.65176 1.37688,11.2273 -1.35052,3.46556 -4.82717,5.0602 -8.34416,5.48686 l 2.79519,-11.32051 c -2.48043,4.25829 -6.11371,7.58502 -10.89603,9.97987 -7.78178,-3.81175 -8.95435,-13.94759 -8.51497,-22.53232 57.27816,1.92564 37.3653,-29.98486 10.51299,-30.72631 -7.51868,-0.20752 -15.58108,2.02479 -22.64616,8.13192 -6.31335,6.57855 -8.79226,16.08205 -7.8472,25.01691 0.60812,8.53165 5.20946,16.70735 12.44372,21.3469 8.05205,5.29224 18.22595,5.40687 27.44458,4.05303 16.34941,-2.57724 10.9252,-10.83279 48.1082,-44.79541 4.79148,1.04896 9.22978,3.2063 13.73781,5.07273 -5.5573,-4.44864 -11.11546,-8.8958 -16.67273,-13.34442 -2.508,1.72334 -4.90839,3.44774 -7.41639,5.17109 0.009,-2.77068 0,-13.51478 0,-13.51478 z m -45.4951,8.1876 c 12.69705,-0.0816 25.88625,20.19636 -12.16939,19.22983 l 0.0212,-2.59332 c 0.7089,-12.35786 6.3773,-16.59939 12.14868,-16.63651 z m 45.49678,21.89346 c -8.36487,8.01634 -12.77817,14.93587 -21.79983,30.4748 h 24.82022 c -0.76868,-1.06172 -3.04284,-3.79378 -3.02207,-6.32285 0.0604,-10.82108 0.0217,-17.64736 0.002,-24.15195 z"
       sodipodi:nodetypes="ccccsscccccccscccccccccccccccccccc"
       inkscape:label="e r" />
    <path
       style="font-size:147.929px;font-family:Klarissa;-inkscape-font-specification:Klarissa;display:inline;fill:#ffffff;fill-opacity:1;fill-rule:evenodd;stroke:none;stroke-width:1.12827;stroke-opacity:1"
       d="m 402.48882,376.53968 c -6.4267,0 -11.44555,2.67624 -15.05602,8.0262 v -6.79463 c -2.33827,2.13587 -12.92909,9.73865 -21.92526,9.27304 1.30691,2.09878 2.41821,3.90472 3.51492,6.24769 1.66421,3.92402 2.58745,8.25814 2.58745,12.809 0,8.70541 -2.36407,13.25077 -2.59126,13.90479 -2.15808,5.52694 -5.57141,10.18995 -11.35369,14.44404 h 7.99559 8.50809 16.62227 c -2.23841,-1.80738 -3.35811,-4.08365 -3.35811,-6.83094 v -35.02871 c 2.2385,-5.20538 5.19829,-7.80817 8.88101,-7.80817 4.83804,0 7.25741,2.96417 7.25741,8.89245 v 33.94443 c 0,2.81958 -1.11961,5.09585 -3.35811,6.83094 h 25.02133 c -2.23849,-1.80738 -3.35809,-4.08365 -3.35809,-6.83094 v -31.55778 c 0,-2.2412 0.86777,-4.62759 2.60082,-7.15797 1.87743,-2.7473 3.89776,-4.12113 6.06409,-4.12113 4.83804,0 7.25741,2.96417 7.25741,8.89245 v 33.94443 c 0,2.81958 -1.11964,5.09585 -3.35813,6.83094 h 20.9289 4.09247 13.46856 c -6.9701,-1.86763 -11.90912,-8.91929 -14.1755,-16.22641 -3.23771,-10.43879 0.39074,-22.72558 -6.55047,-34.85082 -3.17727,-4.55471 -8.33947,-6.8329 -15.48823,-6.8329 -7.0024,0 -14.58561,3.49427 -17.17874,8.55019 -2.59957,-6.7959 -8.16689,-8.55019 -17.04871,-8.55019 z"
       id="path285"
       sodipodi:nodetypes="sccccscccccscsssccsscsssccccscscs"
       inkscape:label="m" />
    <path
       style="font-size:147.929px;font-family:Klarissa;-inkscape-font-specification:Klarissa;display:inline;fill:#ffffff;fill-opacity:1;fill-rule:evenodd;stroke:none;stroke-width:1.12827;stroke-opacity:1"
       d="m 316.02501,372.3344 c 1.45915,3.50146 3.34885,7.49578 4.88034,10.95592 -5.01656,4.14173 -8.84094,9.96138 -10.33821,16.61844 10.33977,6.05333 11.45256,18.84557 8.10667,27.01845 5.13921,5.20642 12.07074,8.54061 19.52712,8.54061 15.17713,0 28.32206,-10.5506 28.32206,-29.36434 0,-16.21742 -12.72307,-29.36431 -28.32206,-29.36431 -1.46256,0 -2.92159,0.13706 -4.36213,0.39969 -0.60109,0.14368 -8.75126,-1.20795 -17.81364,-4.80195 z m 22.73417,9.97875 c 7.02667,-9.7e-4 12.72312,10.77196 12.72295,24.06134 1.7e-4,13.28938 -5.69628,24.06239 -12.72295,24.06131 -3.64989,-0.0884 -3.38203,-5.24829 -3.91272,-7.90767 -0.33473,-2.81319 -0.43419,-5.64873 -0.6349,-8.47176 -1.78951,1.77527 -5.34917,5.13517 -6.00096,5.7715 -1.37205,-3.84051 -2.17251,-8.46967 -2.17244,-13.45345 -2e-4,-13.28796 5.6951,-24.06042 12.72102,-24.06136 z"
       id="path286"
       sodipodi:nodetypes="ccccssscccscsccccss"
       inkscape:label="o" />
    <path
       style="font-size:147.929px;font-family:Klarissa;-inkscape-font-specification:Klarissa;display:inline;fill:#ffffff;fill-opacity:1;fill-rule:evenodd;stroke:none;stroke-width:1.12827;stroke-opacity:1"
       d="m 284.84531,377.07702 c -4.4837,-0.19001 -8.99952,0.50924 -13.47831,3.3562 -0.30282,3.83545 -2.2966,10.53683 -11.75685,15.17634 6.6875,3.40161 11.35982,8.18837 13.3758,15.43268 14.80694,4.36228 22.17092,5.02457 26.67554,7.72978 -1.36627,3.19293 -3.58504,5.84556 -5.82506,8.32834 2.98845,-1.9775 5.51133,-2.58576 9.35913,-5.0888 0.64753,0.98948 1.07732,2.12169 1.19331,3.41165 0.76032,4.49662 -4.09502,8.19489 -8.29201,7.33965 -9.45321,-3.49411 -13.46206,-11.38115 -22.86419,-12.01922 -1.0239,5.94698 -4.20214,11.02601 -9.68039,14.30066 11.32383,-4.9402 17.8731,0.29386 24.26598,1.62359 6.03016,1.53842 12.60945,1.32258 18.25922,-1.44955 6.52725,-2.99749 10.29418,-10.23316 10.05135,-17.27056 0.0729,-5.16094 -1.75396,-10.44202 -5.78869,-13.83019 -5.87655,-5.43964 -18.83437,-6.34579 -26.54933,-9.13534 l -0.28302,-8.79881 -3.63923,6.94187 c -4.1705,-2.57551 -4.27627,-6.70857 -2.13609,-8.74714 8.13032,-6.29137 30.19023,1.57227 14.39817,5.74283 4.64061,5.99242 16.77797,3.79792 20.66687,-4.47874 1.0016,-2.21053 1.62103,-6.14788 0.47429,-7.77567 -8.85051,4.3547 -18.56502,-0.36968 -28.42917,-0.78789 z"
       id="path287"
       sodipodi:nodetypes="cccccccccccccccccccccccc"
       inkscape:label="s" />
    <path
       style="font-size:147.929px;font-family:Klarissa;-inkscape-font-specification:Klarissa;display:inline;fill:#ffffff;fill-opacity:1;fill-rule:evenodd;stroke:none;stroke-width:1.12827;stroke-opacity:1"
       d="m 247.53897,369.72024 7.25358,8.66299 c -5.98248,-0.54087 -12.40946,-2.50726 -18.85588,-2.45929 -4.81572,0.0358 -9.64305,1.19598 -14.30253,4.91284 -0.84516,0.60412 -1.60308,1.29098 -2.27571,2.04623 10.07582,9.85306 10.10438,22.14354 9.39922,28.01034 6.08852,1.63469 12.23403,3.09349 18.33575,4.68338 1.39001,0.38413 2.86031,0.92425 4.2263,1.64848 l -4.92241,8.02427 8.59608,-5.17869 c 0.98251,1.16935 1.65039,2.56774 1.79952,4.22632 0.76031,4.49659 -4.09313,8.19295 -8.29008,7.33771 -10.45536,-4.69466 -18.0439,-15.80597 -30.26696,-10.1986 -6.17112,2.83102 -2.9857,10.62864 -1.18947,13.3674 -0.50135,-2.36642 3.40667,-3.99664 5.12894,-4.00449 6.15761,-0.23058 12.05046,3.71189 18.04695,4.74076 6.03016,1.53838 12.60945,1.32446 18.25923,-1.44765 6.52723,-2.99748 10.29423,-10.23507 10.05139,-17.27249 0.0729,-5.16092 -1.7521,-10.44203 -5.78681,-13.83017 -5.62474,-4.44503 -13.08984,-5.77989 -19.97462,-7.34922 -6.1e-4,-1.4e-4 -9.8e-4,1.4e-4 -0.002,0 l -6.7468,-10.44149 c 0.43927,3.31546 -0.12505,5.90625 -1.27746,8.08355 -8.44096,-3.6688 -5.90194,-8.79858 -4.6088,-10.03034 7.84588,-4.51093 24.54086,1.48456 14.66971,6.41025 0,0 1.10222,1.07908 2.24513,1.61594 6.58464,2.91747 15.08641,-0.23746 18.15214,-6.76213 1.00158,-2.21054 1.61909,-6.14789 0.47236,-7.77563 -6.95754,-1.48492 -12.42534,-4.36725 -18.13685,-7.02027 z"
       id="path288"
       sodipodi:nodetypes="ccscccccccccsccccccscccccccccc"
       inkscape:label="s" />
    <path
       style="font-size:147.929px;font-family:Klarissa;-inkscape-font-specification:Klarissa;display:inline;fill:#ffffff;fill-opacity:1;fill-rule:evenodd;stroke:none;stroke-width:1.12827;stroke-opacity:1"
       d="m 196.73477,377.08749 c -6.17057,0 -11.81868,3.06363 -17.22656,6.4963 0,14.98652 0.006,29.89031 0.006,44.96848 0,0.43537 8.67736,7.26387 17.22105,7.26387 5.1728,0 10.10878,-1.22505 14.36948,-3.58568 -1.2592,-4.20544 -1.20819,-9.63771 4.19,-12.96391 l 0.16056,-0.0994 0.17393,-0.0785 c 2.50361,-1.13074 5.13981,-1.71018 7.7508,-1.77276 1.08287,-3.23252 1.67715,-6.86166 1.67715,-10.86413 0,-16.21743 -12.72308,-29.36434 -28.3221,-29.36434 z m 0.55842,5.57654 c 7.02665,-9.7e-4 12.72312,10.77196 12.72293,24.06134 1.9e-4,13.28938 -5.69628,24.06239 -12.72293,24.06131 -4.98584,-0.19696 -5.33773,-12.57013 -5.97231,-16.81922 -3.15041,6.0899 -3.7422,8.36563 -4.07906,9.2176 -1.76521,-4.13082 -2.66976,-10.73481 -2.66968,-16.45969 -1.8e-4,-13.28799 5.69513,-24.06042 12.72105,-24.06134 z"
       id="path289"
       sodipodi:nodetypes="ccsscccscsccscscccs"
       inkscape:label="o" />
    <path
       style="font-size:147.929px;font-family:Klarissa;-inkscape-font-specification:Klarissa;display:inline;fill:#ffffff;fill-opacity:1;fill-rule:evenodd;stroke:none;stroke-width:1.12827;stroke-opacity:1"
       d="m 174.68946,350.41202 c -2.32474,2.35408 -15.01233,8.87213 -22.52762,8.58651 2.96472,2.1427 3.64143,3.67615 4.05037,4.91859 v 3.38678 h -0.0139 c 0.0139,7.27104 0.0476,38.2363 0.0476,57.60797 0.25813,3.52415 -0.4537,6.62882 -3.3562,9.85443 h 25.30821 c -3.01587,-3.01585 -3.47384,-6.36842 -3.30075,-9.93664 -0.12402,-21.64269 -0.19824,-67.86305 -0.20857,-74.41764 z"
       id="path290"
       inkscape:label="L" />
    <path
       id="path291"
       style="display:inline;opacity:1;fill:#ffffff;fill-opacity:1;fill-rule:evenodd;stroke:none;stroke-width:0.612283;stroke-linecap:square;stroke-dasharray:none;stroke-opacity:1"
       inkscape:label="currwent b"
       d="m 447.62126,102.38113 c 0.0519,0.0633 0.51289,0.6322 0.94336,1.32812 l -1.79296,3.10547 2.4082,4.16992 -2.33789,4.05079 2.38476,4.1289 -2.41797,4.1875 2.2461,3.89063 -2.64063,4.57226 2.48243,4.29883 -2.29297,3.9707 1.13476,1.96485 c -0.24962,0.21982 -0.53891,0.451 -0.87695,0.69531 0.002,-8e-5 0.008,8e-5 0.01,0 -1.41413,0.91343 -3.29263,1.51485 -5.68554,2.61523 l 6.23828,0.0684 -0.002,0.002 c 5.75982,0.0795 9.49297,-0.0148 13.79882,3.91992 l -0.004,0.002 c 0.66454,0.60674 1.34144,1.31042 2.04297,2.125 4.6707,-5.24484 12.1397,-4.00615 19.15625,-7.70508 7.95007,-4.19101 8.66615,-8.7375 8.68164,-12.48242 0.0321,-7.75527 -4.70313,-11.26562 -4.70313,-11.26562 0,0 -2.74113,-1.87769 -2.83203,-2.83594 -0.18111,-1.90872 2.1589,-3.63554 2.30274,-3.70703 -0.20739,0.087 -6.8053,2.84175 -12.09571,3.5 0,0 10.92173,-3.93635 12.98438,-6.89844 1.427,-2.04925 1.02409,-5.07105 -1.40235,-6.51953 -1.63737,-0.97021 -3.50834,-1.14964 -9.88672,-1.17774 -6.30976,-0.0279 -27.391,-0.004 -27.84375,-0.004 z m 19.8086,2.5957 c 2.75783,-0.0167 4.98593,2.17333 4.71484,4.06836 -0.97264,6.79929 -9.4493,11.64765 -8.72461,15.63086 -0.007,0.9016 0.32334,1.82377 1.03125,2.41016 1.52928,1.43288 4.00836,2.03228 5.81446,1.02929 4.38132,-2.43308 3.13192,-6.55604 1.48632,-7.08789 -1.77252,-0.57287 -3.61875,0.74268 -3.14257,2.33203 3.04647,-3.96337 5.37049,2.35066 0.60546,2.91602 -1.2156,0.22352 -3.33325,-0.79745 -3.61718,-2.2168 -0.38274,-1.91323 1.04568,-4.79689 4.58593,-4.86523 9.49476,-0.18335 12.36737,10.98678 7.56055,17.5664 -2.34227,-2.36873 -4.5566,-2.05456 -6.12695,-1.82031 1.10381,1.1101 3.36324,4.26522 0.0957,5.32227 -2.02787,0.68181 -11.01757,0.4827 -10.99805,-5.32227 -0.41679,-2.65772 0.69762,-2.91441 1.55469,-3.77148 0.45239,-0.45239 1.00402,-0.73099 1.30274,-0.91211 0.0745,-0.0451 0.10789,-0.0977 0.10156,-0.14649 -0.006,-0.0464 -0.0481,-0.0895 -0.125,-0.12109 -0.74386,-0.30557 -2.66992,-1.2098 -2.66992,-2.38281 0,-1.93927 0.0195,-4.64739 0.0195,-7.37696 0,-0.91013 1.88911,-2.50723 2.39648,-2.91992 0.0682,-0.0554 0.0619,-0.1341 -0.0137,-0.17968 -0.53017,-0.32021 -2.4082,-1.54191 -2.4082,-2.7754 0,-2.75051 0.002,-6.77673 -0.0117,-9.33398 z m -15.24024,2.20508 c 0.96559,4.5e-4 1.77769,0.58858 2.55079,1.33008 0.0591,0.0567 0.14961,0.0525 0.20312,-0.01 0.68244,-0.79164 1.46493,-1.42626 2.74219,-1.2832 0.14929,0.0167 0.17472,0.11718 0.0605,0.21484 -1.20614,1.03145 -2.04184,2.20969 -2.84375,3.40039 -0.076,0.11278 -0.19891,0.11253 -0.27539,0 -0.77489,-1.14015 -1.59283,-2.29638 -2.71679,-3.37695 -0.12856,-0.1236 -0.0937,-0.25321 0.084,-0.26758 0.0658,-0.005 0.13094,-0.008 0.19531,-0.008 z m -2.42773,1.0625 c 0,0 1.47785,0.33159 2.00391,0.73828 0.54332,0.42007 1.57182,1.76963 1.58398,1.92578 -3e-5,0.001 1.6e-4,0.003 0,0.004 h -0.002 v 0.002 0.002 h -0.002 v 0.002 h -0.002 -0.002 c -0.59468,-0.0919 -1.73607,-0.1107 -2.35742,-0.67188 -1.14196,-1.03139 -1.22266,-2.00195 -1.22266,-2.00195 z m 10.2207,0 c 0,0 -0.0807,0.97056 -1.22265,2.00195 -0.62135,0.56118 -1.76275,0.57998 -2.35743,0.67188 h -0.002 -0.002 v -0.002 h -0.002 v -0.002 -0.002 h -0.002 c -0.0208,-0.11969 1.03203,-1.50295 1.58399,-1.92969 0.52606,-0.40669 2.0039,-0.73828 2.0039,-0.73828 z m -6.7539,3.94727 c 0.84726,0.0162 1.09703,1.1338 1.26172,2.20117 -0.77111,-0.45311 -1.68483,-0.93104 -1.76563,-1.90039 -0.0135,-0.16153 0.17289,-0.26837 0.32617,-0.28907 0.0619,-0.008 0.12124,-0.0126 0.17774,-0.0117 z m 3.19336,0 c 0.0565,-0.001 0.11583,0.003 0.17773,0.0117 0.15329,0.0208 0.33967,0.12756 0.32617,0.28907 -0.0808,0.96937 -0.99451,1.44726 -1.76562,1.90039 0.1647,-1.06736 0.41446,-2.18497 1.26172,-2.20117 z m 1.67968,1.18554 c 0.0403,0 0.0798,-9e-5 0.11914,0.004 0.248,0.0225 0.434,0.29922 0.5293,0.5293 0.34271,0.82736 0.29737,1.95883 -0.15039,2.73437 -0.4044,0.70045 -1.88477,1.10352 -1.88477,1.10352 0,0 0.49399,0.73976 0.55469,1.20117 0.042,0.31915 0.0781,0.47741 -0.17383,0.67773 -0.39042,0.31041 -1.06415,0.24939 -1.49609,0 -0.28707,-0.16574 -0.44922,-0.66601 -0.44922,-0.66601 v -3.55274 c 0,0 1.70068,-2.0073 2.95117,-2.02929 z m -6.55273,0.002 c 1.25048,0.0219 2.95117,2.03122 2.95117,2.03125 v 3.55273 c 0,0 -0.16215,0.49831 -0.44922,0.66406 -0.43195,0.24939 -1.10567,0.31038 -1.49609,0 -0.25192,-0.20033 -0.21583,-0.35859 -0.17383,-0.67773 0.0608,-0.46141 0.55469,-1.20119 0.55469,-1.20117 0,0 -1.48038,-0.40308 -1.88477,-1.10352 -0.44777,-0.77555 -0.49309,-1.90704 -0.15039,-2.73437 0.0953,-0.23008 0.2813,-0.50485 0.5293,-0.52735 0.0393,-0.004 0.0787,-0.005 0.11914,-0.004 z m -0.23242,6.66601 c 0.0901,5e-4 0.17204,0.0234 0.24414,0.0664 0.30255,0.18143 0.33958,0.67595 0.082,1.10547 -0.25713,0.429 -0.70924,0.63187 -1.01172,0.45117 -0.30316,-0.18085 -0.34149,-0.67749 -0.084,-1.10742 0.18847,-0.31437 0.49286,-0.51763 0.76953,-0.51563 z m 7.01953,0 c 0.27667,-0.002 0.57912,0.20127 0.76758,0.51563 0.25751,0.42993 0.22113,0.92461 -0.082,1.10546 -0.30247,0.1807 -0.75654,-0.0202 -1.01368,-0.44921 -0.25755,-0.42953 -0.22053,-0.92405 0.082,-1.10547 0.0721,-0.043 0.156,-0.0659 0.2461,-0.0664 z m -3.45117,0.98683 c 0.0498,-9e-5 0.10043,0.0297 0.13867,0.0859 0.77488,1.14015 1.59284,2.29443 2.7168,3.375 0.12857,0.1236 0.0937,0.25321 -0.084,0.26757 -1.05216,0.0851 -1.92145,-0.52938 -2.74609,-1.32031 -0.0591,-0.0567 -0.14963,-0.0525 -0.20313,0.01 -0.68245,0.79163 -1.46494,1.42432 -2.74219,1.28125 -0.1493,-0.0167 -0.17472,-0.11719 -0.0605,-0.21485 1.20615,-1.03145 2.04184,-2.20774 2.84375,-3.39843 0.038,-0.0564 0.0869,-0.0859 0.13672,-0.0859 z m -0.24414,4.54637 c 0.6864,0.0162 2.31676,0.49458 2.41992,0.61329 v 0.002 0.002 0.002 0.002 0.002 l -0.002,0.002 c -0.53342,0.27852 -1.46379,0.94098 -2.29687,0.85743 -1.5311,-0.15356 -2.17188,-0.88868 -2.17188,-0.88868 0,0 1.38604,-0.60938 2.05079,-0.59375 z m 0.18945,2.69922 c 0.5556,-0.004 1.11133,0.3201 1.11133,0.94922 v 6.625 c 0.94542,-0.0833 1.38986,-0.54822 1.50195,-1.58984 0.0826,-0.76755 0.0312,-1.64165 -0.01,-2.46094 -0.0465,-0.92808 1.20013,-0.81733 1.375,0.0391 0.21052,1.03098 0.11433,1.98805 0.0234,2.94727 -0.26096,2.75404 -1.68617,2.589 -2.89062,2.91992 v 2.48828 c -7e-4,0.0558 -0.0458,0.10086 -0.10157,0.10156 h -2.01757 c -0.0558,-7e-4 -0.10087,-0.0458 -0.10157,-0.10156 v -4.24023 c -1.43177,-0.007 -2.83517,-1.37716 -2.90625,-2.29102 -0.18792,-1.02384 -0.0508,-2.09348 -0.0508,-2.58984 0,-0.93571 1.5052,-1.32541 1.51758,0.0391 l 0.0156,1.71875 c 0.004,0.41575 0.5995,1.06273 1.42382,1.23047 v -4.76563 c 0,-0.68318 0.55378,-1.01547 1.10938,-1.01953 z m 2.76953,10.48438 c 0.11415,0.003 0.21913,0.0381 0.30469,0.10742 0.27442,0.22202 0.23983,0.71846 -0.0762,1.10742 -0.23116,0.28446 -0.55846,0.44159 -0.83204,0.40039 -0.0891,-0.0133 -0.16907,-0.0468 -0.23437,-0.0996 -0.27372,-0.22251 -0.23961,-0.71871 0.0762,-1.10742 0.21683,-0.26687 0.5106,-0.41436 0.76172,-0.4082 z m -5.39258,0.11719 c 0.1603,-0.002 0.3355,0.0362 0.50586,0.11523 0.45361,0.21054 0.70061,0.63916 0.55274,0.95898 -0.14793,0.32051 -0.63722,0.41016 -1.0918,0.19922 -0.33247,-0.15434 -0.5647,-0.43559 -0.5918,-0.71093 -0.009,-0.0896 0.004,-0.1737 0.0391,-0.25 0.0929,-0.19998 0.31878,-0.30997 0.58594,-0.3125 z"
       transform="matrix(1.7613167,0,0,1.7613167,-714.12768,178.71441)"
       sodipodi:nodetypes="ccccccccccccccccccccsscsccscssccsccssccssccccssssssscscccscscsssccccssccccccccscccsccccccccsccscscssscccssccsscsssccccsscssscsscsssccccsssccscssccssscscsccccccccccscccsscscsscccccccssccsssscsscssssscsccss" />
  </g>
  <path
     id="text43"
     style="font-size:14.0811px;line-height:0px;font-family:Klarissa;-inkscape-font-specification:Klarissa;letter-spacing:-0.0754343px;word-spacing:0px;fill:#ffffff;fill-rule:evenodd;stroke-width:1.33948;stroke-linecap:square;stroke-miterlimit:0.2;paint-order:markers stroke fill"
     d="m 7.3097144,5.480457 c 0.7423017,1.9907054 3.3666086,2.7544689 4.8112516,5.024919 V 8.9169581 h 6.185999 c 0.922996,-0.1133607 1.751797,-0.2156682 2.46609,-0.64694 0.795157,-0.5121347 1.192982,-1.2065064 1.192982,-2.0825267 0,-0.7277712 -0.229519,-1.3070049 -0.687745,-1.738281 -0.458226,-0.4447571 -1.050575,-0.6669705 -1.778344,-0.6669705 0.296499,0.215638 0.444401,0.4779211 0.444401,0.7878972 0,0.6064856 -0.545728,0.9103199 -1.637384,0.9103199 H 12.120966 V 3.8022675 H 11.190617 V 5.480457 c -1.4584588,0.089801 -3.8809026,0 -3.8809026,0 z m 2.5447329,10.435629 c 0,0 1.6462497,2.640044 1.4860347,4.442524 0.422242,-0.582708 0.957944,-0.956241 0.957944,-0.956241 0,0 5.65611,-0.604513 8.211995,-0.04978 0.462485,0.100382 0.950397,0.209114 1.27385,0.626908 v -4.69032 c -0.336931,0.417793 -0.761715,0.626909 -1.27385,0.626909 h -6.655569 c -1.024271,-0.458225 -2.256382,-4.787096 0.842002,-5.33726 -2.19496,-0.18828 -3.788906,0.184362 -3.788906,2.648595 0,1.100558 1.256339,2.426144 1.509035,2.688662 -0.666349,-0.0013 -2.5625385,0 -2.5625385,0 z m 1.0535037,9.797591 c 0,0.458225 0.06047,0.997397 0.181766,1.617351 0.107819,0.606476 0.195245,1.084434 0.262635,1.434843 0.05391,0.336931 0.08087,0.566446 0.08087,0.687746 0,0.309978 -0.05391,0.693953 -0.161735,1.152178 0.06739,0.01349 0.141701,0.02656 0.222571,0.04007 h 0.283408 c 0.673862,0 1.246547,-0.255736 1.71825,-0.767871 0.44475,-0.498656 0.666972,-1.104855 0.666972,-1.819149 0,-0.700817 -0.209114,-1.199923 -0.626909,-1.496422 -0.1213,0.242586 -0.323114,0.364275 -0.606135,0.364275 -0.1213,0 -0.242975,-0.0408 -0.364275,-0.121674 -0.1213,-0.08086 -0.229134,-0.182138 -0.323472,-0.303438 -0.09434,-0.1213 -0.167919,-0.248799 -0.221828,-0.383565 -0.06739,-0.14825 -0.101646,-0.283038 -0.101646,-0.404338 0,-0.417793 0.128234,-0.761703 0.384307,-1.031248 0.24259,-0.26955 0.572648,-0.404337 0.990442,-0.404337 h 0.52601 c 0.390841,0.05391 0.801775,0.673958 1.233046,1.859954 0.2965,0.808635 0.559531,1.476046 0.788644,2.001659 0.215635,0.525612 0.4109,0.922695 0.586105,1.19224 0.714293,1.11861 1.610483,1.678188 2.688662,1.678188 1.037747,0 1.826103,-0.363571 2.365192,-1.091341 0.471703,-0.660385 0.707777,-1.509953 0.707777,-2.547701 0,-0.768202 -0.169049,-1.509193 -0.50598,-2.223487 -0.09434,-0.202158 -0.275754,-0.485596 -0.545299,-0.84948 h 0.64694 v -4.063412 c -0.336931,0.417788 -0.761715,0.626904 -1.27385,0.626904 h -6.266866 c -1.307292,0 -2.223886,0.50566 -2.749499,1.516452 -0.39084,0.754726 -0.586105,1.866584 -0.586105,3.335604 z m 4.245178,-1.415554 h 3.598237 c 0.566044,0 1.017786,0.107834 1.354717,0.32347 0.458225,0.256068 0.687746,0.640786 0.687746,1.15292 0,0.956883 -0.660859,1.434843 -1.981628,1.434843 -1.078178,0 -1.886937,-0.330058 -2.426027,-0.990443 z m 3.274766,9.878457 c 0,0.498658 0.175603,0.923442 0.52601,1.273851 0.350409,0.350408 0.775193,0.525268 1.273851,0.525268 0.498657,0 0.916146,-0.17486 1.253077,-0.525268 0.336931,-0.350409 0.505236,-0.775193 0.505236,-1.273851 0,-0.498656 -0.168305,-0.922698 -0.505236,-1.273107 -0.336931,-0.350409 -0.75442,-0.526011 -1.253077,-0.526011 -0.498658,0 -0.923442,0.175602 -1.273851,0.526011 -0.350407,0.350409 -0.52601,0.774451 -0.52601,1.273107 z"
     sodipodi:nodetypes="cccscsccsscccccsccsccsccsccsccsccscscssscscsccccscsccccsscscscssccssssssssss" />
</svg>
